<svg width="354" height="354" viewBox="0 0 354 354" xmlns="http://www.w3.org/2000/svg" xmlns:xlink="http://www.w3.org/1999/xlink"><style>svg *{transition:fill .6s ease-out,opacity .1s ease-out}#logo--desktop,#logo--tablet{opacity:1}@media all and (max-width:50px){#logo--desktop,#logo--tablet{opacity:0}#logo--mobile{fill:#fff}}</style><g id="logo--Page-1" fill="none" fill-rule="evenodd"><g id="logo--tablet" transform="translate(4 4)"><g id="logo--whiteBgCirle"><use fill="#060606" xlink:href="#logo--path-1"/><use stroke="#6EC4E9" mask="url(#logo--mask-2)" stroke-width="8" xlink:href="#logo--path-1"/></g><path d="M172.7 10.5c-89.6 0-162.2 72.6-162.2 162.2s72.6 162.2 162.2 162.2 162.2-72.6 162.2-162.2c-.1-89.6-72.7-162.2-162.2-162.2zm0 276.6c-63.2 0-114.4-51.2-114.4-114.4S109.5 58.3 172.7 58.3c17.4 0 34 3.9 48.8 10.9.8-1.1 2.1-1.8 3.8-1.8 1 0 1.9.3 2.6.7.6-.2 1.2-.4 1.9-.4 4.7 0 5.9 5.2 3.9 8.1 32.1 20.3 53.5 56 53.5 96.8-.1 63.3-51.3 114.5-114.5 114.5z" id="logo--Shape" fill="#6EC4E9"/><g id="logo--Group" transform="translate(36 25)" fill="#FFF"><path d="M19.2 101.4L0 92.2l3.5-7.4c.8-1.6 1.7-2.9 2.8-3.8 1.1-1 2.3-1.6 3.5-2 1.3-.4 2.6-.5 3.9-.4 1.3.1 2.7.5 4 1.2 1.5.7 2.7 1.6 3.6 2.6 1 1 1.7 2.2 2.1 3.4.4 1.2.6 2.6.5 4-.1 1.4-.5 2.8-1.2 4.3l-3.5 7.3zm-4-16.3c-.7-.4-1.5-.6-2.2-.7-.7-.1-1.4-.1-2 .1-.6.2-1.2.5-1.7.9s-.9 1-1.2 1.6l-1 2.1 10 4.8 1-2.1c.3-.7.5-1.4.5-2 0-.6-.1-1.3-.4-1.9-.3-.6-.7-1.1-1.2-1.6s-1.1-.9-1.8-1.2zM29.1 82.2L11.2 70.7l3.2-4.9 17.9 11.5zM42.1 61.8c0 2-.6 3.7-1.9 5.3-.9 1.1-1.9 1.9-3.1 2.6-1.2.7-2.4 1-3.8 1.2-1.3.1-2.7 0-4.1-.5-1.4-.4-2.8-1.2-4.1-2.3-1.2-1-2-2.1-2.7-3.3-.6-1.3-1-2.6-1.1-3.9-.1-1.4.1-2.7.5-4.1a9.5 9.5 0 0 1 2.1-3.8c.6-.7 1.3-1.4 2-1.9s1.5-1 2.3-1.3c.8-.3 1.6-.5 2.4-.6.8-.1 1.6-.1 2.4.1l-.2 5.5c-.9-.2-1.8-.2-2.8.1-.9.3-1.7.8-2.3 1.6-.5.5-.8 1.1-.9 1.7-.2.6-.2 1.3-.1 1.9.1.6.4 1.3.7 1.9.3.6.9 1.2 1.5 1.7s1.3.9 2 1.2c.7.3 1.3.4 2 .4s1.3-.2 1.9-.5c.6-.3 1.1-.7 1.6-1.3 1.1-1.3 1.5-2.9 1.3-4.8l-2.4 2.8-3.2-2.7 5.6-6.7 8.7 7.3-3.1 3.7-1.2-1.3zM48.9 57.4L34.4 41.8l4.3-4 14.5 15.6zM55.9 50.7L43.4 33.5l4.7-3.4 4.8 6.6.5-10.4 5.3-3.9-.7 12.3 13.6 4.7-5.4 3.9-8.9-3.2-.3 2.3 3.6 5zM80.3 35.3c-1.4.7-2.9 1.1-4.4 1.1-1.5 0-2.8-.2-4.1-.7-1.3-.5-2.5-1.2-3.5-2.1-1-.9-1.9-2-2.5-3.2-.6-1.3-1-2.6-1.1-4-.1-1.4.1-2.8.5-4.1.4-1.3 1.1-2.5 2-3.7.9-1.1 2.1-2 3.5-2.7 1.4-.7 2.9-1.1 4.4-1.1 1.5 0 2.8.2 4.1.7 1.3.5 2.5 1.2 3.5 2.1 1 .9 1.9 2 2.5 3.2.6 1.3 1 2.6 1.1 4 .1 1.4-.1 2.8-.5 4.1-.4 1.3-1.1 2.5-2 3.7-.9 1.1-2.1 2-3.5 2.7zm-9.1-7.5c.3.6.7 1.2 1.2 1.7s1 .9 1.6 1.2c.6.3 1.2.4 1.9.4s1.4-.2 2.2-.5c.8-.3 1.3-.9 1.7-1.4.4-.5.7-1.2.8-1.8.1-.6.1-1.3 0-2s-.4-1.4-.7-2c-.3-.6-.7-1.2-1.2-1.7s-1-.9-1.6-1.2c-.6-.3-1.2-.4-1.9-.4s-1.4.2-2.1.5c-.8.4-1.3.8-1.7 1.4-.4.6-.7 1.2-.8 1.8-.1.7-.1 1.3 0 2 0 .7.2 1.4.6 2zM92.2 29.5L86.1 9.1l5.6-1.7 2.3 7.8 3.9-9.6 6.3-1.9-4.7 11.4 11.3 8.9-6.4 1.9-7.3-6L96 22l1.8 5.9zM112.1 23.9l-2.7-21.1 5.8-.7 1 8 5.4-8.9 6.5-.8-6.5 10.4 9.7 10.6-6.7.9-6.2-7.1-1.4 1.9.8 6.1zM132.7 21.8L132.4.5l5.8-.1.3 21.3zM157.6 1.9l5.3.8 3.9 22.2-5.9-.9-.6-4.3-5.6-.9-1.9 3.9-5.9-.9 10.7-19.9zm2.4 13.8l-.8-6.8-3 6.2 3.8.6zM177.3 17.4l-3.4 9.9-5.5-1.9 6.9-20.2 4.3 1.5 4.6 13 3.5-10.2 5.5 1.9-6.9 20.2-4.4-1.5zM189.6 33.1l10.3-18.7 7.2 4c1.5.8 2.8 1.8 3.7 3 .9 1.1 1.5 2.3 1.8 3.6.3 1.3.4 2.6.2 3.9-.2 1.3-.7 2.7-1.4 3.9-.8 1.4-1.7 2.6-2.8 3.5-1.1.9-2.3 1.5-3.5 1.9-1.3.4-2.6.4-4 .3-1.4-.1-2.8-.7-4.2-1.5l-7.3-3.9zm16.5-3.1c.4-.7.7-1.4.8-2.1.1-.7.1-1.4 0-2-.1-.6-.4-1.2-.8-1.7s-.9-1-1.6-1.3l-2-1.1-5.4 9.7 2 1.1c.7.4 1.3.6 2 .6s1.3-.1 1.9-.3c.6-.2 1.2-.6 1.7-1.1.6-.5 1-1.1 1.4-1.8zM208.1 43.7L221.3 27l7.7 6.1c.8.6 1.4 1.4 1.9 2.3.5.9.7 1.8.7 2.7.1.9 0 1.9-.3 2.8-.3.9-.7 1.7-1.2 2.4-.8 1-1.7 1.7-2.8 2.2-1.1.5-2.2.7-3.4.7l-1.3 8.9-5.2-4.1 1.1-7.5-1.7-1.4-4.1 5.1-4.6-3.5zm11.9-5.5l2.9 2.3c.3.2.7.3 1.2.2.5-.1 1-.5 1.4-1 .5-.6.7-1.1.6-1.7 0-.5-.2-.9-.5-1.1l-2.8-2.2-2.8 3.5zM237.9 64.1l-3.7 3.5-10.4-11.1L239.4 42l10.2 10.9-3.7 3.5-6.2-6.6-2.2 2 5.3 5.7-3.5 3.2L234 55l-2.5 2.3zM256.6 62.2l3 4.4-13.4 18.1-3.4-4.9 2.7-3.4-3.2-4.7-4.2 1.3-3.4-4.9 21.9-5.9zm-8.4 11.3l4.4-5.3-6.6 2.1 2.2 3.2zM265.3 91.5c.1-.7.1-1.4.1-2.1 0-.6-.1-1.2-.2-1.9s-.3-1.3-.6-1.9c-.2-.5-.5-.8-.8-1-.3-.2-.6-.2-.9-.1-.3.1-.4.3-.5.5-.1.2-.1.5-.1.9s.1.8.2 1.3.2 1.1.3 1.7c.2 1 .2 2 .3 2.8 0 .9-.1 1.7-.3 2.4-.2.7-.5 1.4-1 1.9-.5.6-1.2 1.1-2.1 1.5-1.2.6-2.2.8-3.2.8s-1.9-.3-2.7-.8c-.8-.5-1.5-1.1-2.2-1.9-.6-.8-1.2-1.6-1.6-2.5-.3-.7-.6-1.4-.9-2.2-.2-.8-.5-1.6-.6-2.4-.2-.8-.3-1.6-.3-2.4-.1-.8-.1-1.6 0-2.3h5.7c-.1.8-.1 1.6-.1 2.5 0 .7.1 1.5.2 2.3.1.8.4 1.6.8 2.4.3.6.5.9.8 1.1.3.2.5.2.8 0 .3-.1.4-.4.5-.7.1-.3.1-.7 0-1.2 0-.5-.1-1-.2-1.6-.1-.6-.2-1.2-.3-1.9-.1-1-.2-1.9-.1-2.6 0-.8.2-1.5.4-2.1.2-.6.6-1.1 1-1.6s1-.8 1.7-1.2c1.1-.5 2.1-.8 3.1-.8s1.9.2 2.8.6c.9.4 1.6 1 2.3 1.7.7.7 1.3 1.6 1.7 2.5.3.7.6 1.4.8 2.2.2.7.3 1.5.4 2.2.1.7.2 1.4.2 2.1v1.8h-5.4z" id="logo--Shape"/></g><g id="logo--Group" transform="translate(69 259)" fill="#004A97"><path d="M3.5 24.3C2.3 23.2 1.4 22 .9 20.6c-.6-1.3-.9-2.7-.9-4.1 0-1.4.2-2.7.7-4C1.2 11.2 1.9 10 2.8 9c.9-1 2-1.9 3.3-2.5 1.3-.6 2.6-.9 4-1 1.4-.1 2.8.1 4.1.6 1.4.5 2.7 1.2 3.8 2.3 1.2 1.1 2.1 2.3 2.6 3.7.5 1.4.8 2.7.9 4.1.1 1.4-.2 2.7-.7 4-.5 1.3-1.2 2.5-2.1 3.5-.9 1-2 1.9-3.3 2.4-1.3.6-2.6.9-4 1-1.4.1-2.8-.1-4.1-.5-1.4-.5-2.7-1.3-3.8-2.3zM7.1 13c-.5.5-.9 1.1-1.2 1.7-.3.6-.5 1.3-.5 1.9-.1.7 0 1.3.3 2 .2.6.7 1.3 1.3 1.8.6.6 1.3.9 2 1.1.7.2 1.3.2 2 .1.6-.1 1.3-.4 1.9-.8.6-.4 1.1-.8 1.6-1.3s.9-1.1 1.2-1.7c.3-.6.5-1.3.5-1.9 0-.7-.1-1.3-.3-1.9-.2-.6-.7-1.2-1.3-1.8-.6-.6-1.3-.9-1.9-1.1-.7-.2-1.3-.2-2-.1s-1.3.4-1.9.7c-.7.3-1.2.8-1.7 1.3zM16.7 35l11.5-17.9 7.7 5c.9.6 1.6 1.3 2.1 2.1s.8 1.7 1 2.6c.2.9.1 1.9 0 2.8-.2.9-.5 1.8-1 2.5-.5.8-1.1 1.5-1.9 2-.8.6-1.6 1-2.5 1.2-.9.2-1.8.3-2.8.2-1-.1-1.9-.5-2.7-1l-2.9-1.9-3.5 5.5-5-3.1zm11.2-6.6l2.6 1.7c.3.2.7.2 1.1.1.4-.1.9-.5 1.4-1.2.5-.7.7-1.3.5-1.8-.1-.5-.3-.8-.6-1l-2.5-1.6-2.5 3.8zM51.5 48.1l-2.1 4.6-13.8-6.3L44.4 27 58 33.2l-2.1 4.6-8.2-3.7-1.2 2.7 7 3.2-2 4.3-7-3.2-1.4 3.1zM75.6 43.9l-5.9-1.7-4.5 15.6-5.6-1.6 4.5-15.6-5.9-1.7 1.4-4.9L77 39zM86.7 56.7c.7.1 1.3 0 1.8-.2s.9-.6 1.3-1c.4-.5.6-1 .9-1.6.3-.6.4-1.3.4-2L92.4 41l5.8.7-1.3 10.9c-.2 1.5-.5 2.8-1 4.1-.5 1.2-1.2 2.3-2.1 3.1-.9.8-2 1.5-3.3 1.9-1.3.4-2.7.5-4.3.3-1.7-.2-3.1-.7-4.2-1.4S80 59 79.3 58c-.7-1-1.1-2.2-1.3-3.5-.2-1.3-.2-2.7-.1-4.1l1.3-10.9 5.8.7-1.3 10.9c-.1.7-.1 1.4 0 2 .1.7.2 1.3.5 1.8.2.5.6 1 1 1.3.3.2.8.5 1.5.5zM114.9 48c-.6-.3-1.2-.6-1.9-.9-.5-.2-1.2-.4-1.8-.6-.7-.2-1.3-.3-2-.2-.5 0-.9.1-1.2.3-.3.2-.4.4-.4.8 0 .3.1.5.3.7.2.2.5.3.8.5.3.1.8.3 1.3.4.5.1 1.1.3 1.7.4 1 .3 1.9.6 2.7.9.8.3 1.5.7 2.1 1.2.6.5 1 1 1.4 1.7.3.7.5 1.5.6 2.5.1 1.3-.1 2.4-.6 3.3-.4.9-1 1.6-1.8 2.2-.7.6-1.6 1-2.6 1.2-1 .3-1.9.4-2.9.5-.8 0-1.6 0-2.4-.1-.8-.1-1.6-.2-2.5-.4-.8-.2-1.6-.4-2.4-.7-.8-.3-1.5-.6-2.1-.9l2.3-5.2c.7.4 1.5.8 2.2 1.1.7.3 1.4.5 2.2.7.8.2 1.6.3 2.5.3.6 0 1.1-.1 1.3-.3.2-.2.4-.4.3-.7 0-.3-.1-.5-.4-.7-.3-.2-.6-.4-1.1-.5-.4-.1-1-.3-1.5-.4-.5-.1-1.2-.3-1.8-.5-1-.3-1.8-.6-2.5-.9-.7-.3-1.3-.7-1.7-1.2-.5-.5-.8-1-1-1.6-.2-.6-.4-1.3-.4-2.1 0-1.2.1-2.2.5-3.1.4-.9.9-1.7 1.7-2.3.8-.6 1.5-1.1 2.5-1.5.9-.3 1.9-.5 3-.6.8 0 1.5 0 2.3.1.7.1 1.5.3 2.2.5.7.2 1.4.4 2 .7.6.2 1.2.5 1.7.7l-2.6 4.7zM124.1 39.9l6.7 12.9 1.4-14.5 6-1.2-3.6 22.4-4.8.9L118 41.1zM147.2 56.5L140 36.4l5.5-2 5.4 15.3 9.1-3.2 1.7 4.8zM175.3 44.6c-1.4.8-2.9 1.2-4.3 1.3-1.5.1-2.8-.1-4.1-.5-1.3-.4-2.5-1.1-3.6-2-1.1-.9-2-1.9-2.6-3.2-.7-1.2-1.1-2.5-1.2-3.9-.2-1.4 0-2.8.3-4.1.4-1.3 1-2.6 1.9-3.7.9-1.1 2-2.1 3.4-2.9 1.4-.8 2.9-1.2 4.3-1.3 1.5-.1 2.8.1 4.2.5 1.3.4 2.5 1.1 3.6 2 1.1.9 1.9 1.9 2.6 3.1.7 1.2 1.1 2.5 1.2 3.9.1 1.4 0 2.8-.3 4.1-.4 1.3-1 2.6-1.9 3.7-1 1.3-2.1 2.3-3.5 3zm-9.4-7.1c.3.6.8 1.2 1.3 1.7s1 .9 1.6 1.1c.6.3 1.2.4 1.9.4s1.4-.2 2.1-.6c.7-.4 1.3-.9 1.7-1.5.4-.6.6-1.2.7-1.9.1-.7.1-1.3-.1-2s-.4-1.3-.7-2c-.3-.6-.8-1.2-1.3-1.7s-1-.9-1.7-1.1c-.7-.2-1.2-.4-1.9-.3-.7 0-1.4.2-2.1.6-.7.4-1.3.9-1.7 1.5-.4.6-.6 1.2-.7 1.8-.1.7-.1 1.3.1 2s.4 1.4.8 2zM200.1 25.2c-.4 2-1.3 3.5-2.9 4.8-1.1.9-2.3 1.5-3.5 1.9-1.3.4-2.6.5-3.9.4-1.3-.1-2.6-.6-3.9-1.3-1.3-.7-2.5-1.7-3.6-3.1-.9-1.2-1.6-2.4-2-3.8-.4-1.4-.5-2.7-.3-4.1.2-1.4.6-2.7 1.3-3.9.7-1.3 1.6-2.4 2.8-3.3.7-.6 1.5-1.1 2.3-1.5.8-.4 1.6-.7 2.5-.8.8-.2 1.7-.2 2.5-.1s1.6.3 2.4.6l-1.3 5.3c-.9-.4-1.8-.5-2.7-.4-1 .1-1.8.5-2.6 1.1-.5.4-1 1-1.2 1.5-.3.6-.4 1.2-.4 1.9s.1 1.3.3 2c.2.7.6 1.4 1.1 2 .5.7 1.1 1.2 1.7 1.5.6.4 1.2.6 1.9.7.6.1 1.3.1 1.9-.1.6-.2 1.2-.5 1.8-.9 1.3-1.1 2.1-2.6 2.2-4.5l-2.9 2.3-2.6-3.3 6.8-5.5 7.1 8.8-3.8 3-1-1.2zM209.1 19.1L193.7 4.3l4.1-4.2 15.4 14.8z" id="logo--Shape"/></g><path d="M172.7 339.1c-91.8 0-166.4-74.7-166.4-166.4S80.9 6.3 172.7 6.3c91.8 0 166.4 74.7 166.4 166.4s-74.7 166.4-166.4 166.4zm0-324.3c-87.1 0-157.9 70.8-157.9 157.9 0 87.1 70.8 157.9 157.9 157.9 87.1 0 157.9-70.8 157.9-157.9 0-87.1-70.8-157.9-157.9-157.9z" id="logo--Shape" fill="#004A97"/><path d="M146.3 275.2h-.4c-39.6-10.3-70-43-77.4-83.3-.1-.8.4-1.5 1.1-1.7.8-.1 1.5.4 1.6 1.1 7.2 39.2 36.8 71 75.3 81 .8.2 1.2 1 1 1.7 0 .8-.5 1.2-1.2 1.2zM172.7 278.5c-.8 0-1.4-.6-1.4-1.4 0-.8.6-1.4 1.4-1.4 4.7 0 9.4-.3 14.1-1 .8-.1 1.5.4 1.6 1.2.1.8-.4 1.5-1.2 1.6-4.8.7-9.7 1-14.5 1zM204.8 273.5c-.6 0-1.2-.4-1.3-1-.2-.7.2-1.5.9-1.8 23.3-7.5 43.2-23.2 56.1-44.1.4-.7 1.3-.9 2-.5s.9 1.3.5 2c-13.2 21.5-33.7 37.6-57.6 45.3-.3.1-.4.1-.6.1zM68.3 174.1c-.8 0-1.4-.6-1.4-1.4 0-22.4 6.9-43.7 19.9-61.8.5-.6 1.3-.8 2-.3.6.5.8 1.3.3 2-12.7 17.6-19.4 38.4-19.4 60.1 0 .8-.7 1.4-1.4 1.4z" id="logo--Shape" fill="#6EC4E9"/></g><g id="logo--desktop" transform="translate(25 58)"><path id="logo--Shape" fill="#004A97" d="M13.3 130.7l-12-12 12-12 12 12z"/><circle id="logo--Oval" fill="#004A97" cx="13.3" cy="118.7" r="9.9"/><circle id="logo--Oval" fill="#004A97" cx="290" cy="118.7" r="9.9"/><path d="M213 17.2c.6 1.5.5 3.3-.3 4.7 0 .9-.2 1.9-.6 2.7-.1.6-.3 1.2-.7 1.7 30.3 19.6 50.4 53.7 50.4 92.4 0 60.7-49.4 110.1-110.1 110.1-60.7 0-110.1-49.4-110.1-110.1C41.6 58 91 8.6 151.7 8.6c15.9 0 31.1 3.4 44.7 9.5.7-1.4 2-2.5 4.1-2.6.5-1.5 1.6-2.9 3.4-3.2C188.1 4.5 170.4.2 151.6.2 86.3 0 33 53.3 33 118.7s53.2 118.6 118.6 118.6c65.4 0 118.6-53.2 118.6-118.6.1-43-22.9-80.7-57.2-101.5z" id="logo--Shape" fill="#004A97"/><g id="logo--Group" transform="translate(0 90)" fill="#004A97"><path d="M5 59.5c-.7 0-1.3-.5-1.4-1.1C1.7 48.7.7 38.7.7 28.8c0-9.1.8-18.2 2.4-27.1C3.2.9 4 .4 4.7.6c.8.1 1.3.9 1.1 1.6-1.6 8.7-2.4 17.7-2.4 26.6 0 9.8 1 19.6 2.9 29.1.2.8-.3 1.5-1.1 1.7 0-.1-.1-.1-.2-.1zM26.5 55.2c-.7 0-1.3-.5-1.4-1.1-1.6-8.3-2.5-16.8-2.5-25.3 0-7.8.7-15.6 2.1-23.2.1-.8.9-1.3 1.6-1.1.8.1 1.3.9 1.1 1.6-1.3 7.4-2 15-2 22.7 0 8.3.8 16.7 2.4 24.8.2.8-.3 1.5-1.1 1.7 0-.1-.1-.1-.2-.1zM15.9 57.3c-.7 0-1.3-.5-1.4-1.1-1.8-9-2.7-18.2-2.7-27.5 0-8.4.8-16.9 2.2-25.1.1-.8.9-1.3 1.6-1.1.8.1 1.3.9 1.1 1.6-1.5 8.1-2.2 16.3-2.2 24.6 0 9.1.9 18.1 2.6 26.9.2.8-.3 1.5-1.1 1.7h-.1z" id="logo--Shape"/></g><g id="logo--Group" transform="translate(275 90)" fill="#004A97"><path d="M24.1 59.5h-.3c-.8-.1-1.3-.9-1.1-1.6 1.6-8.7 2.4-17.7 2.4-26.6 0-9.8-1-19.6-2.9-29.1-.2-.8.3-1.5 1.1-1.7.8-.2 1.5.3 1.7 1.1 1.9 9.7 2.9 19.7 2.9 29.6 0 9.1-.8 18.2-2.4 27.1-.1.7-.7 1.2-1.4 1.2zM2.5 55.5h-.3c-.8-.1-1.3-.9-1.1-1.6 1.3-7.4 2-15 2-22.7 0-8.3-.8-16.7-2.4-24.8-.2-.8.3-1.5 1.1-1.7.8-.2 1.5.3 1.7 1.1C5.1 14.1 6 22.6 6 31.1c0 7.8-.7 15.6-2.1 23.2-.1.8-.7 1.2-1.4 1.2zM13.1 57.5h-.3c-.8-.1-1.3-.9-1.1-1.6 1.5-8.1 2.2-16.3 2.2-24.6 0-9.1-.9-18.1-2.6-26.9-.2-.8.3-1.5 1.1-1.7.8-.2 1.5.3 1.7 1.1 1.8 9 2.7 18.2 2.7 27.5 0 8.4-.8 16.9-2.2 25.1-.2.6-.8 1.1-1.5 1.1z" id="logo--Shape"/></g><circle id="logo--Oval" fill="#FFF" cx="13.3" cy="118.7" r="4.1"/><circle id="logo--Oval" fill="#FFF" cx="290" cy="118.7" r="4.1"/></g><g id="logo--kattila-mobile" transform="translate(91 63)"><path d="M171 100.4c0-8.6-7-15.5-15.5-15.5-3.3 0-6.5 1.1-9.1 3-.6-.5-1.1-1-1.7-1.5 5.1-3.6 7.8-7.8 7.8-12.1 0-8.2-9.5-15.5-26.1-20.3 6.9-10.2 14.8-22.3 21.8-33.8 2.8-4.5 1.3-10.5-3.2-13.3-2.2-1.3-4.8-1.8-7.3-1.2-2.5.6-4.6 2.1-6 4.3-7.9 12.9-16.3 27.7-23.1 40.2-7.4-1-15.1-1.5-23-1.5-5.6 0-11 .3-16.1.7L64 53l-14.8 9.4c-.8.4-1.8.7-2.8.7-1.1 0-2.2-.3-3-.9l-3.8-2.5c-.3-.2-.6-.5-.9-.7l-.3-.3c-.1-.1-.1-.2-.2-.2-.1-.1-.1-.2-.2-.3-.1-.1-.1-.2-.2-.3-.2-.4-.4-.9-.5-1.4-11.5 4.6-18.5 10.8-18.5 17.7 0 4.4 2.7 8.5 7.8 12.1-.6.5-1.1 1-1.7 1.5-2.6-1.9-5.8-2.9-9.1-2.9-8.6 0-15.5 7-15.5 15.5 0 5.7 3.1 10.8 7.8 13.5-1.4 4.7-2.1 9.6-2.1 14.4 0 15.2 6.9 29.1 18.4 39.9.2 9.4 3.2 22.6 9.5 22.6 4.3 0 6.8-6.1 8-10.3 12.6 6.5 27.6 10.3 43.8 10.3 16.2 0 31.2-3.8 43.8-10.3 1.2 4.2 3.7 10.3 8 10.3 6.3 0 9.3-13.1 9.5-22.6 11.5-10.8 18.4-24.7 18.4-39.9 0-5-.7-9.7-2.1-14.4 4.6-2.7 7.7-7.8 7.7-13.5zm-15.6-5c2.8 0 5 2.3 5 5 0 1.4-.6 2.6-1.5 3.5-1.6-3-3.4-5.7-5.3-8.3.6-.1 1.2-.2 1.8-.2zm-52.9 3.5c-5.5.5-11.1.8-16.8.8-4.9 0-9.8-.2-14.5-.6-.8-.1-1.4-.8-1.3-1.6.1-.8.8-1.4 1.6-1.3 10 .8 20.8.8 30.8-.2.8-.1 1.5.5 1.6 1.3 0 .8-.6 1.5-1.4 1.6zm33.3-86.4c.7-1.1 1.8-1.9 3.1-2.3 1.3-.3 2.6-.1 3.8.6 2.4 1.4 3.1 4.5 1.7 6.9-.8 1.3-1.6 2.7-2.5 4v-.4c.2-2.4-.7-4.4-2.3-5.4-.7-.4-1.5-.7-2.4-.7-1.2 0-2.6.5-3.8 1.3.7-1.3 1.6-2.7 2.4-4zm-2.7 10.9c1.4-2.3 3.2-3.5 4-3.5.3.5.3 2.6-1.3 5.2-1.5 2.4-3.3 3.5-4 3.5-.2-.5-.2-2.6 1.3-5.2zm-6 3.7c-.2 2.4.7 4.4 2.3 5.4.7.4 1.5.7 2.4.7 1.1 0 2.3-.4 3.5-1.1-13.3 20.7-26.9 40-30.2 44.5-.6 0-1.2 0-1.8-.1-1.1 0-2.3-.1-3.4-.2 3.9-7.4 15.3-28.7 27.2-49.2zM39.2 65.3c.7-.3 1.6 0 1.9.7.3.7 0 1.6-.7 1.9-3.7 1.7-5.8 3.5-5.8 5.2 0 1.9 2.3 3.8 6.5 5.6 3.7-3.4 9.7-6.1 17.3-8.1-.1-1.3.4-2.6 1.3-3.6l3.4-3.8c.7-.8 1.7-1.4 2.9-1.7.2-.1.4-.1.7-.1 0-.2 0-.4.1-.7.1-1.1.6-2.2 1.4-3l3.4-3.7c1-1.1 2.3-1.7 3.7-1.7h.7c1.8.3 3.3 1.5 4 3.2l1.2 2.8c5.5-.1 11 0 16.3.3.8 0 1.4.7 1.4 1.5s-.7 1.4-1.5 1.4c-4.9-.3-9.9-.4-15-.3l2.6 6.3h.7c4.6 0 9.2.3 13.5.7-1.9 3.5-3.3 6.2-4 7.6H95c-1.2-.3-2.5.5-2.7 1.8-.3 1.2.5 2.5 1.8 2.7 2.9.6 6.2.7 9.3.8 2.1.1 4.1.1 5.8.4h.3c1.1 0 2.1-.8 2.3-2 .1-1-.4-1.9-1.2-2.3 1.1-1.5 2.5-3.6 4.2-6 6.9 2 12.1 4.6 15.4 7.6 4.4-1.8 6.8-3.8 6.8-5.7 0-1.3-1.4-2.9-4-4.3-.7-.4-1-1.3-.6-2s1.3-1 2-.6c3.7 2 5.5 4.3 5.5 6.8 0 3.4-3.6 6.3-9.4 8.6-.1.1-.3.1-.4.2-10.4 4-27.6 6-44.2 6-16.8 0-34.2-2.1-44.5-6.2-.1 0-.3-.1-.4-.2-5.6-2.3-9.1-5.1-9.1-8.5-.2-2.7 2.3-5.4 7.3-7.6zM15.9 95.5c.6 0 1.2.1 1.7.3-2 2.6-3.8 5.3-5.3 8-.8-.9-1.4-2.1-1.4-3.4.1-2.7 2.3-4.9 5-4.9z" id="logo--mobile" fill="#004A97"/><g id="logo--Group" transform="translate(41)" fill="#6EC4E9"><path d="M32.2 19.2l-4.4-2.6c-.2-.1-.3-.3-.4-.5-.1-.2-.1-.4-.1-.6l.7-5.9c0-.2 0-.4-.1-.4-.1-.1-.2 0-.4.1l-4.7 3.5c-.2.1-.4.2-.7.2-.2 0-.5 0-.6-.1l-4.4-2.6c-.2-.1-.3-.2-.3-.4s.1-.3.2-.4l12.4-8.4c.2-.1.4-.2.6-.2.2 0 .4 0 .6.1l3.1 1.8c.2.1.3.3.4.5.1.2.2.4.1.6l-1.4 14.9c0 .2-.1.4-.2.4-.1.1-.2.1-.4 0zM1.1 18l3.4-2.8c.2-.1.3-.2.5-.2s.4.1.5.3l.9 1.2c.1.2.3.3.5.3s.4 0 .6-.1c1.6-.7 3.4-1.1 5.3-1.1.2 0 .4.1.5.2.1.1.2.3.2.5l.3 4c0 .2-.1.4-.2.5-.1.2-.3.2-.5.2-1.2.1-2.2.4-3 .7-.8.3-1.6.7-2.1 1.2-.2.1-.4.3-.6.5l-.6.6c-.2.2-.2.4-.3.7 0 .2 0 .4.2.7.2.2.5.3 1 .2.5-.1.9-.2 1.5-.5.5-.2 1-.4 1.4-.7.4-.2.7-.4.8-.5.6-.3 1.4-.7 2.2-1 .8-.3 1.7-.5 2.6-.6.9-.1 1.8.1 2.7.4.9.3 1.8 1 2.6 2 1.2 1.5 1.7 3 1.6 4.5-.2 1.5-.8 2.9-2 4.3-.1.2-.2.3-.2.5s0 .4.2.5l1 1.2c.1.2.2.3.2.5s-.1.4-.3.5l-3.4 2.8c-.2.1-.3.2-.5.2s-.4-.1-.5-.3l-1.2-1.5c-.1-.2-.3-.3-.5-.3-.2-.1-.4 0-.6 0-.9.4-1.8.6-2.7.8-.9.1-1.8.2-2.6.2-.2 0-.4-.1-.5-.2-.1-.2-.2-.3-.2-.5l-.3-4c0-.2.1-.4.2-.5.1-.2.3-.2.5-.3 1.3-.1 2.4-.4 3.5-.7 1.1-.3 1.9-.8 2.7-1.4.7-.5 1.1-1.1 1.3-1.5.2-.5.1-.9-.2-1.3-.2-.2-.4-.3-.6-.3-.2 0-.5.1-.8.2-.3.1-.7.3-1 .5-.4.2-.8.4-1.2.7-.4.2-.8.5-1.4.7-.5.3-1.1.5-1.7.8-.6.2-1.2.4-1.9.5-.7.1-1.3.2-2 .1s-1.3-.3-2-.7c-.7-.3-1.3-.9-1.9-1.6-.6-.7-1-1.4-1.2-2.1-.2-.7-.4-1.4-.4-2.1 0-.7.1-1.3.4-1.9.2-.6.5-1.2.9-1.8.1-.2.2-.4.2-.6 0-.2-.1-.4-.2-.5l-1-1.3c-.1-.2-.2-.3-.2-.5-.2 0-.1-.2.1-.3zM40.5 72.2l-2.4 2.6c-.1.2-.3.3-.6.3-.2.1-.5.1-.7 0l-14.3-4.4c-.2-.1-.3-.2-.4-.3 0-.2 0-.3.1-.5l3.4-3.8c.1-.2.3-.3.6-.3.2-.1.5-.1.7 0l5.6 1.9c.2.1.3.1.4 0 .1-.1.1-.2 0-.4l-2.4-5.4c-.1-.2-.1-.4-.1-.6 0-.2.1-.4.3-.6l3.4-3.7c.1-.2.3-.2.5-.2s.3.1.3.3l5.7 13.8c.1.2.1.4.1.7 0 .2-.1.4-.2.6zM32.3 42L6.4 58.5c-.2.1-.4.1-.6.1-.2 0-.4-.1-.6-.2l-3.8-2.5c-.2-.1-.3-.2-.3-.4s.1-.3.3-.4l25.9-16.5c.2-.1.4-.2.6-.2.2 0 .5.1.6.2l3.8 2.5c.2.1.3.2.3.4s-.1.4-.3.5z" id="logo--Shape"/></g><g id="logo--Group" transform="translate(11 120)" fill="#6EC4E9"><path d="M9.7 16.7h-.6c-.7.2-1.3.8-1.3 1.6s.6 1.4 1.3 1.6h.6c.7-.2 1.3-.8 1.3-1.6s-.6-1.4-1.3-1.6zM107.2 16.7h-.6c-.7.2-1.3.8-1.3 1.6s.6 1.4 1.3 1.6h.6c.7-.2 1.3-.8 1.3-1.6s-.6-1.4-1.3-1.6zM99 16.7h-.6c-.7.2-1.3.8-1.3 1.6s.6 1.4 1.3 1.6h.6c.7-.2 1.3-.8 1.3-1.6s-.5-1.4-1.3-1.6z" id="logo--Shape"/><circle id="logo--Oval" cx="102.8" cy="14.3" r="1.6"/><path d="M123.4 16.7h-.6c-.7.2-1.3.8-1.3 1.6s.6 1.4 1.3 1.6h.6c.7-.2 1.3-.8 1.3-1.6s-.5-1.4-1.3-1.6zM115.3 16.7h-.6c-.7.2-1.3.8-1.3 1.6s.6 1.4 1.3 1.6h.6c.7-.2 1.3-.8 1.3-1.6s-.6-1.4-1.3-1.6z" id="logo--Shape"/><circle id="logo--Oval" cx="123.1" cy="10.2" r="1.6"/><circle id="logo--Oval" cx="115" cy="10.2" r="1.6"/><circle id="logo--Oval" cx="110.9" cy="14.3" r="1.6"/><circle id="logo--Oval" cx="119" cy="14.3" r="1.6"/><path d="M139.7 16.7h-.6c-.7.2-1.3.8-1.3 1.6s.6 1.4 1.3 1.6h.6c.7-.2 1.3-.8 1.3-1.6s-.6-1.4-1.3-1.6zM131.5 16.7h-.6c-.7.2-1.3.8-1.3 1.6s.6 1.4 1.3 1.6h.6c.7-.2 1.3-.8 1.3-1.6s-.5-1.4-1.3-1.6z" id="logo--Shape"/><circle id="logo--Oval" cx="139.3" cy="10.2" r="1.6"/><circle id="logo--Oval" cx="131.2" cy="10.2" r="1.6"/><circle id="logo--Oval" cx="127.1" cy="14.3" r="1.6"/><circle id="logo--Oval" cx="135.3" cy="14.3" r="1.6"/><circle id="logo--Oval" cx="127.1" cy="6.1" r="1.6"/><circle id="logo--Oval" cx="147.5" cy="10.2" r="1.6"/><circle id="logo--Oval" cx="143.4" cy="14.3" r="1.6"/><circle id="logo--Oval" cx="143.4" cy="6.1" r="1.6"/><circle id="logo--Oval" cx="9.3" cy="26.4" r="1.6"/><circle id="logo--Oval" cx="5.3" cy="22.4" r="1.6"/><circle id="logo--Oval" cx="25.6" cy="34.6" r="1.6"/><circle id="logo--Oval" cx="17.5" cy="34.6" r="1.6"/><circle id="logo--Oval" cx="25.6" cy="26.4" r="1.6"/><circle id="logo--Oval" cx="17.5" cy="26.4" r="1.6"/><circle id="logo--Oval" cx="13.4" cy="30.5" r="1.6"/><circle id="logo--Oval" cx="21.5" cy="30.5" r="1.6"/><circle id="logo--Oval" cx="13.4" cy="22.4" r="1.6"/><circle id="logo--Oval" cx="21.5" cy="22.4" r="1.6"/><circle id="logo--Oval" cx="41.8" cy="34.6" r="1.6"/><circle id="logo--Oval" cx="33.7" cy="34.6" r="1.6"/><circle id="logo--Oval" cx="33.7" cy="26.4" r="1.6"/><circle id="logo--Oval" cx="29.6" cy="30.5" r="1.6"/><circle id="logo--Oval" cx="37.8" cy="30.5" r="1.6"/><circle id="logo--Oval" cx="58.1" cy="34.6" r="1.6"/><circle id="logo--Oval" cx="50" cy="34.6" r="1.6"/><circle id="logo--Oval" cx="50" cy="26.4" r="1.6"/><circle id="logo--Oval" cx="45.9" cy="30.5" r="1.6"/><circle id="logo--Oval" cx="54" cy="30.5" r="1.6"/><circle id="logo--Oval" cx="74.3" cy="34.6" r="1.6"/><circle id="logo--Oval" cx="66.2" cy="34.6" r="1.6"/><circle id="logo--Oval" cx="74.3" cy="26.4" r="1.6"/><circle id="logo--Oval" cx="66.2" cy="26.4" r="1.6"/><circle id="logo--Oval" cx="62.1" cy="30.5" r="1.6"/><circle id="logo--Oval" cx="70.3" cy="30.5" r="1.6"/><circle id="logo--Oval" cx="90.6" cy="34.6" r="1.6"/><circle id="logo--Oval" cx="82.5" cy="34.6" r="1.6"/><circle id="logo--Oval" cx="90.6" cy="26.4" r="1.6"/><circle id="logo--Oval" cx="82.5" cy="26.4" r="1.6"/><circle id="logo--Oval" cx="78.4" cy="30.5" r="1.6"/><circle id="logo--Oval" cx="86.5" cy="30.5" r="1.6"/><path d="M86.5 20.8h-.3c-.1 0-.2.1-.3.1-.6.3-1 .8-1 1.5 0 .9.7 1.6 1.6 1.6.9 0 1.6-.7 1.6-1.6 0-.9-.7-1.6-1.6-1.6z" id="logo--Shape"/><circle id="logo--Oval" cx="106.8" cy="34.6" r="1.6"/><circle id="logo--Oval" cx="98.7" cy="34.6" r="1.6"/><circle id="logo--Oval" cx="106.8" cy="26.4" r="1.6"/><circle id="logo--Oval" cx="98.7" cy="26.4" r="1.6"/><circle id="logo--Oval" cx="94.6" cy="30.5" r="1.6"/><circle id="logo--Oval" cx="102.8" cy="30.5" r="1.6"/><circle id="logo--Oval" cx="94.6" cy="22.4" r="1.6"/><circle id="logo--Oval" cx="102.8" cy="22.4" r="1.6"/><circle id="logo--Oval" cx="123.1" cy="34.6" r="1.6"/><circle id="logo--Oval" cx="115" cy="34.6" r="1.6"/><circle id="logo--Oval" cx="123.1" cy="26.4" r="1.6"/><circle id="logo--Oval" cx="115" cy="26.4" r="1.6"/><circle id="logo--Oval" cx="110.9" cy="30.5" r="1.6"/><circle id="logo--Oval" cx="119" cy="30.5" r="1.6"/><circle id="logo--Oval" cx="110.9" cy="22.4" r="1.6"/><circle id="logo--Oval" cx="119" cy="22.4" r="1.6"/><circle id="logo--Oval" cx="131.2" cy="34.6" r="1.6"/><circle id="logo--Oval" cx="139.3" cy="26.4" r="1.6"/><circle id="logo--Oval" cx="131.2" cy="26.4" r="1.6"/><circle id="logo--Oval" cx="127.1" cy="30.5" r="1.6"/><circle id="logo--Oval" cx="135.3" cy="30.5" r="1.6"/><circle id="logo--Oval" cx="127.1" cy="22.4" r="1.6"/><circle id="logo--Oval" cx="135.3" cy="22.4" r="1.6"/><circle id="logo--Oval" cx="143.4" cy="22.4" r="1.6"/><circle id="logo--Oval" cx="25.6" cy="42.7" r="1.6"/><circle id="logo--Oval" cx="17.5" cy="42.7" r="1.6"/><circle id="logo--Oval" cx="21.5" cy="46.8" r="1.6"/><circle id="logo--Oval" cx="13.4" cy="38.6" r="1.6"/><circle id="logo--Oval" cx="21.5" cy="38.6" r="1.6"/><path d="M42.2 49.2h-.6c-.7.2-1.3.8-1.3 1.6s.6 1.4 1.3 1.6h.6c.7-.2 1.3-.8 1.3-1.6s-.6-1.4-1.3-1.6zM34 49.2h-.6c-.7.2-1.3.8-1.3 1.6s.6 1.4 1.3 1.6h.6c.7-.2 1.3-.8 1.3-1.6s-.5-1.4-1.3-1.6z" id="logo--Shape"/><circle id="logo--Oval" cx="41.8" cy="42.7" r="1.6"/><circle id="logo--Oval" cx="33.7" cy="42.7" r="1.6"/><circle id="logo--Oval" cx="29.6" cy="46.8" r="1.6"/><circle id="logo--Oval" cx="37.8" cy="46.8" r="1.6"/><circle id="logo--Oval" cx="29.6" cy="38.6" r="1.6"/><circle id="logo--Oval" cx="37.8" cy="38.6" r="1.6"/><path d="M58.4 49.2h-.6c-.7.2-1.3.8-1.3 1.6s.6 1.4 1.3 1.6h.6c.7-.2 1.3-.8 1.3-1.6s-.5-1.4-1.3-1.6zM50.3 49.2h-.6c-.7.2-1.3.8-1.3 1.6s.6 1.4 1.3 1.6h.6c.7-.2 1.3-.8 1.3-1.6s-.6-1.4-1.3-1.6z" id="logo--Shape"/><circle id="logo--Oval" cx="58.1" cy="42.7" r="1.6"/><circle id="logo--Oval" cx="50" cy="42.7" r="1.6"/><circle id="logo--Oval" cx="45.9" cy="46.8" r="1.6"/><circle id="logo--Oval" cx="54" cy="46.8" r="1.6"/><circle id="logo--Oval" cx="45.9" cy="38.6" r="1.6"/><circle id="logo--Oval" cx="54" cy="38.6" r="1.6"/><path d="M74.7 49.2h-.6c-.7.2-1.3.8-1.3 1.6s.6 1.4 1.3 1.6h.6c.7-.2 1.3-.8 1.3-1.6s-.6-1.4-1.3-1.6zM66.5 49.2h-.6c-.7.2-1.3.8-1.3 1.6s.6 1.4 1.3 1.6h.6c.7-.2 1.3-.8 1.3-1.6s-.5-1.4-1.3-1.6z" id="logo--Shape"/><circle id="logo--Oval" cx="74.3" cy="42.7" r="1.6"/><circle id="logo--Oval" cx="66.2" cy="42.7" r="1.6"/><circle id="logo--Oval" cx="62.1" cy="46.8" r="1.6"/><circle id="logo--Oval" cx="70.3" cy="46.8" r="1.6"/><circle id="logo--Oval" cx="62.1" cy="38.6" r="1.6"/><circle id="logo--Oval" cx="70.3" cy="38.6" r="1.6"/><path d="M90.9 49.2h-.6c-.7.2-1.3.8-1.3 1.6s.6 1.4 1.3 1.6h.6c.7-.2 1.3-.8 1.3-1.6s-.5-1.4-1.3-1.6zM82.8 49.2h-.6c-.7.2-1.3.8-1.3 1.6s.6 1.4 1.3 1.6h.6c.7-.2 1.3-.8 1.3-1.6s-.6-1.4-1.3-1.6z" id="logo--Shape"/><circle id="logo--Oval" cx="90.6" cy="42.7" r="1.6"/><circle id="logo--Oval" cx="82.5" cy="42.7" r="1.6"/><circle id="logo--Oval" cx="78.4" cy="46.8" r="1.6"/><circle id="logo--Oval" cx="86.5" cy="46.8" r="1.6"/><circle id="logo--Oval" cx="78.4" cy="38.6" r="1.6"/><circle id="logo--Oval" cx="86.5" cy="38.6" r="1.6"/><path d="M107.2 49.2h-.6c-.7.2-1.3.8-1.3 1.6s.6 1.4 1.3 1.6h.6c.7-.2 1.3-.8 1.3-1.6s-.6-1.4-1.3-1.6zM99 49.2h-.6c-.7.2-1.3.8-1.3 1.6s.6 1.4 1.3 1.6h.6c.7-.2 1.3-.8 1.3-1.6s-.5-1.4-1.3-1.6z" id="logo--Shape"/><circle id="logo--Oval" cx="106.8" cy="42.7" r="1.6"/><circle id="logo--Oval" cx="98.7" cy="42.7" r="1.6"/><circle id="logo--Oval" cx="94.6" cy="46.8" r="1.6"/><circle id="logo--Oval" cx="102.8" cy="46.8" r="1.6"/><circle id="logo--Oval" cx="94.6" cy="38.6" r="1.6"/><circle id="logo--Oval" cx="102.8" cy="38.6" r="1.6"/><path d="M115.3 49.2h-.6c-.7.2-1.3.8-1.3 1.6s.6 1.4 1.3 1.6h.6c.7-.2 1.3-.8 1.3-1.6s-.6-1.4-1.3-1.6z" id="logo--Shape"/><circle id="logo--Oval" cx="123.1" cy="42.7" r="1.6"/><circle id="logo--Oval" cx="115" cy="42.7" r="1.6"/><circle id="logo--Oval" cx="110.9" cy="46.8" r="1.6"/><circle id="logo--Oval" cx="119" cy="46.8" r="1.6"/><circle id="logo--Oval" cx="110.9" cy="38.6" r="1.6"/><circle id="logo--Oval" cx="119" cy="38.6" r="1.6"/><circle id="logo--Oval" cx="131.2" cy="42.7" r="1.6"/><circle id="logo--Oval" cx="127.1" cy="46.8" r="1.6"/><circle id="logo--Oval" cx="127.1" cy="38.6" r="1.6"/><circle id="logo--Oval" cx="135.3" cy="38.6" r="1.6"/><circle id="logo--Oval" cx="37.8" cy="54.9" r="1.6"/><circle id="logo--Oval" cx="58.1" cy="58.9" r="1.6"/><circle id="logo--Oval" cx="50" cy="58.9" r="1.6"/><circle id="logo--Oval" cx="45.9" cy="54.9" r="1.6"/><circle id="logo--Oval" cx="54" cy="54.9" r="1.6"/><circle id="logo--Oval" cx="74.3" cy="58.9" r="1.6"/><circle id="logo--Oval" cx="66.2" cy="58.9" r="1.6"/><circle id="logo--Oval" cx="62.1" cy="63" r="1.6"/><circle id="logo--Oval" cx="70.3" cy="63" r="1.6"/><circle id="logo--Oval" cx="62.1" cy="54.9" r="1.6"/><circle id="logo--Oval" cx="70.3" cy="54.9" r="1.6"/><circle id="logo--Oval" cx="90.6" cy="58.9" r="1.6"/><circle id="logo--Oval" cx="82.5" cy="58.9" r="1.6"/><circle id="logo--Oval" cx="78.4" cy="63" r="1.6"/><circle id="logo--Oval" cx="86.5" cy="63" r="1.6"/><circle id="logo--Oval" cx="78.4" cy="54.9" r="1.6"/><circle id="logo--Oval" cx="86.5" cy="54.9" r="1.6"/><circle id="logo--Oval" cx="106.8" cy="58.9" r="1.6"/><circle id="logo--Oval" cx="98.7" cy="58.9" r="1.6"/><circle id="logo--Oval" cx="94.6" cy="54.9" r="1.6"/><circle id="logo--Oval" cx="102.8" cy="54.9" r="1.6"/><circle id="logo--Oval" cx="110.9" cy="54.9" r="1.6"/><circle id="logo--Oval" cx="147.5" cy="2.1" r="1.6"/><path d="M147.1 19.9h.6c.1 0 .2-.1.2-.1.2-.9.4-1.7.6-2.6-.2-.2-.5-.4-.8-.5h-.6c-.7.2-1.3.8-1.3 1.6s.6 1.5 1.3 1.6zM142.9 32c.5-.9 1-1.9 1.5-2.8-.3-.2-.6-.4-1-.4-.9 0-1.6.7-1.6 1.6 0 .8.4 1.4 1.1 1.6z" id="logo--Shape"/><circle id="logo--Oval" cx="139.3" cy="34.6" r="1.6"/><path d="M122.8 52.4h.2c.6-.4 1.2-.8 1.7-1.1 0-.1.1-.3.1-.5 0-.8-.6-1.4-1.3-1.6h-.6c-.7.2-1.3.8-1.3 1.6-.1.8.4 1.5 1.2 1.6zM120.4 54c-.3-.4-.8-.7-1.4-.7-.9 0-1.6.7-1.6 1.6 0 .3.1.5.2.7.9-.5 1.9-1 2.8-1.6zM103.6 61.6c-.2-.1-.5-.2-.8-.2-.6 0-1.2.4-1.5.9.8-.2 1.5-.4 2.3-.7zM93.6 64.2c.8-.2 1.7-.4 2.5-.6.1-.2.1-.4.1-.7 0-.9-.7-1.6-1.6-1.6-.9 0-1.6.7-1.6 1.6 0 .6.2 1 .6 1.3zM1.2 16.7H.9c-.2 0-.4.1-.6.2.2 1 .4 2 .7 2.9h.5c.7-.2 1.3-.8 1.3-1.6s-.6-1.4-1.3-1.6c-.1.1-.2.1-.3.1zM6 31.9c.5-.3.9-.8.9-1.4 0-.9-.7-1.6-1.6-1.6-.3 0-.5.1-.8.2.5.9 1 1.9 1.5 2.8zM8.7 36.1c.2.1.4.1.6.1.9 0 1.6-.7 1.6-1.6 0-.9-.7-1.6-1.6-1.6-.9 0-1.6.7-1.6 1.6.3.5.7 1 1 1.5zM26 52.4c.7-.2 1.2-.8 1.2-1.6s-.6-1.4-1.3-1.6h-.6c-.7.2-1.3.8-1.3 1.6v.2c.7.5 1.3.9 2 1.4zM31.2 55.5c.1-.2.1-.4.1-.6 0-.9-.7-1.6-1.6-1.6-.5 0-1 .2-1.3.6.9.5 1.8 1.1 2.8 1.6zM42.2 60.5c.7-.2 1.2-.8 1.2-1.6 0-.9-.7-1.6-1.6-1.6-.9 0-1.6.7-1.6 1.6 0 .3.1.6.3.9.6.3 1.1.5 1.7.7zM47.3 62.2c-.3-.5-.8-.8-1.4-.8-.3 0-.5.1-.7.2l2.1.6zM74.5 66.1h1.2c-.3-.4-.8-.7-1.3-.7s-1 .3-1.3.7h1.4zM67.3 65.9c-.3-.3-.7-.4-1.1-.4-.3 0-.6.1-.9.3.7 0 1.3 0 2 .1zM83.4 65.7c-.3-.2-.6-.3-.9-.3-.4 0-.8.2-1.1.4.6 0 1.3 0 2-.1zM55.1 64.2c.3-.3.5-.7.5-1.2 0-.9-.7-1.6-1.6-1.6-.9 0-1.6.7-1.6 1.6 0 .2 0 .4.1.6.9.2 1.8.4 2.6.6z" id="logo--Shape"/></g></g></g></svg>