
<svg width="354px" height="354px" viewBox="0 0 354 354" version="1.1" xmlns="http://www.w3.org/2000/svg" xmlns:xlink="http://www.w3.org/1999/xlink">

    <style>
    svg * {
          transition: fill .6s ease-out, opacity .1s ease-out;
    }
    #logo--desktop, #logo--tablet {
      opacity:1;
    }
    @media all and (max-width: 50px) {
      #logo--desktop, #logo--tablet {
        opacity:0;
      }
      #logo--mobile{
      fill: #FFFFFF;
      }
    }

    </style>
    <g id="logo--Page-1" stroke="none" stroke-width="1" fill="none" fill-rule="evenodd">
        <g id="logo--tablet" transform="translate(4.000000, 4.000000)">
            <g id="logo--whiteBgCirle">
                <use fill="#060606" fill-rule="evenodd" xlink:href="#logo--path-1"></use>
                <use stroke="#6EC4E9" mask="url(#logo--mask-2)" stroke-width="8" xlink:href="#logo--path-1"></use>
            </g>
            <path d="M172.7,10.5 C83.1,10.5 10.5,83.1 10.5,172.7 C10.5,262.3 83.1,334.9 172.7,334.9 C262.3,334.9 334.9,262.3 334.9,172.7 C334.8,83.1 262.2,10.5 172.7,10.5 Z M172.7,287.1 C109.5,287.1 58.3,235.9 58.3,172.7 C58.3,109.5 109.5,58.3 172.7,58.3 C190.1,58.3 206.7,62.2 221.5,69.2 C222.3,68.1 223.6,67.4 225.3,67.4 C226.3,67.4 227.2,67.7 227.9,68.1 C228.5,67.9 229.1,67.7 229.8,67.7 C234.5,67.7 235.7,72.9 233.7,75.8 C265.8,96.1 287.2,131.8 287.2,172.6 C287.1,235.9 235.9,287.1 172.7,287.1 Z" id="logo--Shape" fill="#6EC4E9"></path>
            <g id="logo--Group" transform="translate(36.000000, 25.000000)" fill="#FFFFFF">
                <path d="M19.2,101.4 L0,92.2 L3.5,84.8 C4.3,83.2 5.2,81.9 6.3,81 C7.4,80 8.6,79.4 9.8,79 C11.1,78.6 12.4,78.5 13.7,78.6 C15,78.7 16.4,79.1 17.7,79.8 C19.2,80.5 20.4,81.4 21.3,82.4 C22.3,83.4 23,84.6 23.4,85.8 C23.8,87 24,88.4 23.9,89.8 C23.8,91.2 23.4,92.6 22.7,94.1 L19.2,101.4 Z M15.2,85.1 C14.5,84.7 13.7,84.5 13,84.4 C12.3,84.3 11.6,84.3 11,84.5 C10.4,84.7 9.8,85 9.3,85.4 C8.8,85.8 8.4,86.4 8.1,87 L7.1,89.1 L17.1,93.9 L18.1,91.8 C18.4,91.1 18.6,90.4 18.6,89.8 C18.6,89.2 18.5,88.5 18.2,87.9 C17.9,87.3 17.5,86.8 17,86.3 C16.5,85.8 15.9,85.4 15.2,85.1 Z" id="logo--Shape"></path>
                <polygon id="logo--Shape" points="29.1 82.2 11.2 70.7 14.4 65.8 32.3 77.3"></polygon>
                <path d="M42.1,61.8 C42.1,63.8 41.5,65.5 40.2,67.1 C39.3,68.2 38.3,69 37.1,69.7 C35.9,70.4 34.7,70.7 33.3,70.9 C32,71 30.6,70.9 29.2,70.4 C27.8,70 26.4,69.2 25.1,68.1 C23.9,67.1 23.1,66 22.4,64.8 C21.8,63.5 21.4,62.2 21.3,60.9 C21.2,59.5 21.4,58.2 21.8,56.8 C22.2,55.4 22.9,54.1 23.9,53 C24.5,52.3 25.2,51.6 25.9,51.1 C26.6,50.6 27.4,50.1 28.2,49.8 C29,49.5 29.8,49.3 30.6,49.2 C31.4,49.1 32.2,49.1 33,49.3 L32.8,54.8 C31.9,54.6 31,54.6 30,54.9 C29.1,55.2 28.3,55.7 27.7,56.5 C27.2,57 26.9,57.6 26.8,58.2 C26.6,58.8 26.6,59.5 26.7,60.1 C26.8,60.7 27.1,61.4 27.4,62 C27.7,62.6 28.3,63.2 28.9,63.7 C29.5,64.2 30.2,64.6 30.9,64.9 C31.6,65.2 32.2,65.3 32.9,65.3 C33.6,65.3 34.2,65.1 34.8,64.8 C35.4,64.5 35.9,64.1 36.4,63.5 C37.5,62.2 37.9,60.6 37.7,58.7 L35.3,61.5 L32.1,58.8 L37.7,52.1 L46.4,59.4 L43.3,63.1 L42.1,61.8 Z" id="logo--Shape"></path>
                <polygon id="logo--Shape" points="48.9 57.4 34.4 41.8 38.7 37.8 53.2 53.4"></polygon>
                <polygon id="logo--Shape" points="55.9 50.7 43.4 33.5 48.1 30.1 52.9 36.7 53.4 26.3 58.7 22.4 58 34.7 71.6 39.4 66.2 43.3 57.3 40.1 57 42.4 60.6 47.4"></polygon>
                <path d="M80.3,35.3 C78.9,36 77.4,36.4 75.9,36.4 C74.4,36.4 73.1,36.2 71.8,35.7 C70.5,35.2 69.3,34.5 68.3,33.6 C67.3,32.7 66.4,31.6 65.8,30.4 C65.2,29.1 64.8,27.8 64.7,26.4 C64.6,25 64.8,23.6 65.2,22.3 C65.6,21 66.3,19.8 67.2,18.6 C68.1,17.5 69.3,16.6 70.7,15.9 C72.1,15.2 73.6,14.8 75.1,14.8 C76.6,14.8 77.9,15 79.2,15.5 C80.5,16 81.7,16.7 82.7,17.6 C83.7,18.5 84.6,19.6 85.2,20.8 C85.8,22.1 86.2,23.4 86.3,24.8 C86.4,26.2 86.2,27.6 85.8,28.9 C85.4,30.2 84.7,31.4 83.8,32.6 C82.9,33.7 81.7,34.6 80.3,35.3 Z M71.2,27.8 C71.5,28.4 71.9,29 72.4,29.5 C72.9,30 73.4,30.4 74,30.7 C74.6,31 75.2,31.1 75.9,31.1 C76.6,31.1 77.3,30.9 78.1,30.6 C78.9,30.3 79.4,29.7 79.8,29.2 C80.2,28.7 80.5,28 80.6,27.4 C80.7,26.8 80.7,26.1 80.6,25.4 C80.5,24.7 80.2,24 79.9,23.4 C79.6,22.8 79.2,22.2 78.7,21.7 C78.2,21.2 77.7,20.8 77.1,20.5 C76.5,20.2 75.9,20.1 75.2,20.1 C74.5,20.1 73.8,20.3 73.1,20.6 C72.3,21 71.8,21.4 71.4,22 C71,22.6 70.7,23.2 70.6,23.8 C70.5,24.5 70.5,25.1 70.6,25.8 C70.6,26.5 70.8,27.2 71.2,27.8 Z" id="logo--Shape"></path>
                <polygon id="logo--Shape" points="92.2 29.5 86.1 9.1 91.7 7.4 94 15.2 97.9 5.6 104.2 3.7 99.5 15.1 110.8 24 104.4 25.9 97.1 19.9 96 22 97.8 27.9"></polygon>
                <polygon id="logo--Shape" points="112.1 23.9 109.4 2.8 115.2 2.1 116.2 10.1 121.6 1.2 128.1 0.4 121.6 10.8 131.3 21.4 124.6 22.3 118.4 15.2 117 17.1 117.8 23.2"></polygon>
                <polygon id="logo--Shape" points="132.7 21.8 132.4 0.5 138.2 0.4 138.5 21.7"></polygon>
                <path d="M157.6,1.9 L162.9,2.7 L166.8,24.9 L160.9,24 L160.3,19.7 L154.7,18.8 L152.8,22.7 L146.9,21.8 L157.6,1.9 Z M160,15.7 L159.2,8.9 L156.2,15.1 L160,15.7 Z" id="logo--Shape"></path>
                <polygon id="logo--Shape" points="177.3 17.4 173.9 27.3 168.4 25.4 175.3 5.2 179.6 6.7 184.2 19.7 187.7 9.5 193.2 11.4 186.3 31.6 181.9 30.1"></polygon>
                <path d="M189.6,33.1 L199.9,14.4 L207.1,18.4 C208.6,19.2 209.9,20.2 210.8,21.4 C211.7,22.5 212.3,23.7 212.6,25 C212.9,26.3 213,27.6 212.8,28.9 C212.6,30.2 212.1,31.6 211.4,32.8 C210.6,34.2 209.7,35.4 208.6,36.3 C207.5,37.2 206.3,37.8 205.1,38.2 C203.8,38.6 202.5,38.6 201.1,38.5 C199.7,38.4 198.3,37.8 196.9,37 L189.6,33.1 Z M206.1,30 C206.5,29.3 206.8,28.6 206.9,27.9 C207,27.2 207,26.5 206.9,25.9 C206.8,25.3 206.5,24.7 206.1,24.2 C205.7,23.7 205.2,23.2 204.5,22.9 L202.5,21.8 L197.1,31.5 L199.1,32.6 C199.8,33 200.4,33.2 201.1,33.2 C201.8,33.2 202.4,33.1 203,32.9 C203.6,32.7 204.2,32.3 204.7,31.8 C205.3,31.3 205.7,30.7 206.1,30 Z" id="logo--Shape"></path>
                <path d="M208.1,43.7 L221.3,27 L229,33.1 C229.8,33.7 230.4,34.5 230.9,35.4 C231.4,36.3 231.6,37.2 231.6,38.1 C231.7,39 231.6,40 231.3,40.9 C231,41.8 230.6,42.6 230.1,43.3 C229.3,44.3 228.4,45 227.3,45.5 C226.2,46 225.1,46.2 223.9,46.2 L222.6,55.1 L217.4,51 L218.5,43.5 L216.8,42.1 L212.7,47.2 L208.1,43.7 Z M220,38.2 L222.9,40.5 C223.2,40.7 223.6,40.8 224.1,40.7 C224.6,40.6 225.1,40.2 225.5,39.7 C226,39.1 226.2,38.6 226.1,38 C226.1,37.5 225.9,37.1 225.6,36.9 L222.8,34.7 L220,38.2 Z" id="logo--Shape"></path>
                <polygon id="logo--Shape" points="237.9 64.1 234.2 67.6 223.8 56.5 239.4 42 249.6 52.9 245.9 56.4 239.7 49.8 237.5 51.8 242.8 57.5 239.3 60.7 234 55 231.5 57.3"></polygon>
                <path d="M256.6,62.2 L259.6,66.6 L246.2,84.7 L242.8,79.8 L245.5,76.4 L242.3,71.7 L238.1,73 L234.7,68.1 L256.6,62.2 Z M248.2,73.5 L252.6,68.2 L246,70.3 L248.2,73.5 Z" id="logo--Shape"></path>
                <path d="M265.3,91.5 C265.4,90.8 265.4,90.1 265.4,89.4 C265.4,88.8 265.3,88.2 265.2,87.5 C265.1,86.8 264.9,86.2 264.6,85.6 C264.4,85.1 264.1,84.8 263.8,84.6 C263.5,84.4 263.2,84.4 262.9,84.5 C262.6,84.6 262.5,84.8 262.4,85 C262.3,85.2 262.3,85.5 262.3,85.9 C262.3,86.3 262.4,86.7 262.5,87.2 C262.6,87.7 262.7,88.3 262.8,88.9 C263,89.9 263,90.9 263.1,91.7 C263.1,92.6 263,93.4 262.8,94.1 C262.6,94.8 262.3,95.5 261.8,96 C261.3,96.6 260.6,97.1 259.7,97.5 C258.5,98.1 257.5,98.3 256.5,98.3 C255.5,98.3 254.6,98 253.8,97.5 C253,97 252.3,96.4 251.6,95.6 C251,94.8 250.4,94 250,93.1 C249.7,92.4 249.4,91.7 249.1,90.9 C248.9,90.1 248.6,89.3 248.5,88.5 C248.3,87.7 248.2,86.9 248.2,86.1 C248.1,85.3 248.1,84.5 248.2,83.8 L253.9,83.8 C253.8,84.6 253.8,85.4 253.8,86.3 C253.8,87 253.9,87.8 254,88.6 C254.1,89.4 254.4,90.2 254.8,91 C255.1,91.6 255.3,91.9 255.6,92.1 C255.9,92.3 256.1,92.3 256.4,92.1 C256.7,92 256.8,91.7 256.9,91.4 C257,91.1 257,90.7 256.9,90.2 C256.9,89.7 256.8,89.2 256.7,88.6 C256.6,88 256.5,87.4 256.4,86.7 C256.3,85.7 256.2,84.8 256.3,84.1 C256.3,83.3 256.5,82.6 256.7,82 C256.9,81.4 257.3,80.9 257.7,80.4 C258.1,79.9 258.7,79.6 259.4,79.2 C260.5,78.7 261.5,78.4 262.5,78.4 C263.5,78.4 264.4,78.6 265.3,79 C266.2,79.4 266.9,80 267.6,80.7 C268.3,81.4 268.9,82.3 269.3,83.2 C269.6,83.9 269.9,84.6 270.1,85.4 C270.3,86.1 270.4,86.9 270.5,87.6 C270.6,88.3 270.7,89 270.7,89.7 L270.7,91.5 L265.3,91.5 Z" id="logo--Shape"></path>
            </g>
            <g id="logo--Group" transform="translate(69.000000, 259.000000)" fill="#004A97">
                <path d="M3.5,24.3 C2.3,23.2 1.4,22 0.9,20.6 C0.3,19.3 0,17.9 0,16.5 C0,15.1 0.2,13.8 0.7,12.5 C1.2,11.2 1.9,10 2.8,9 C3.7,8 4.8,7.1 6.1,6.5 C7.4,5.9 8.7,5.6 10.1,5.5 C11.5,5.4 12.9,5.6 14.2,6.1 C15.6,6.6 16.9,7.3 18,8.4 C19.2,9.5 20.1,10.7 20.6,12.1 C21.1,13.5 21.4,14.8 21.5,16.2 C21.6,17.6 21.3,18.9 20.8,20.2 C20.3,21.5 19.6,22.7 18.7,23.7 C17.8,24.7 16.7,25.6 15.4,26.1 C14.1,26.7 12.8,27 11.4,27.1 C10,27.2 8.6,27 7.3,26.6 C5.9,26.1 4.6,25.3 3.5,24.3 Z M7.1,13 C6.6,13.5 6.2,14.1 5.9,14.7 C5.6,15.3 5.4,16 5.4,16.6 C5.3,17.3 5.4,17.9 5.7,18.6 C5.9,19.2 6.4,19.9 7,20.4 C7.6,21 8.3,21.3 9,21.5 C9.7,21.7 10.3,21.7 11,21.6 C11.6,21.5 12.3,21.2 12.9,20.8 C13.5,20.4 14,20 14.5,19.5 C15,19 15.4,18.4 15.7,17.8 C16,17.2 16.2,16.5 16.2,15.9 C16.2,15.2 16.1,14.6 15.9,14 C15.7,13.4 15.2,12.8 14.6,12.2 C14,11.6 13.3,11.3 12.7,11.1 C12,10.9 11.4,10.9 10.7,11 C10,11.1 9.4,11.4 8.8,11.7 C8.1,12 7.6,12.5 7.1,13 Z" id="logo--Shape"></path>
                <path d="M16.7,35 L28.2,17.1 L35.9,22.1 C36.8,22.7 37.5,23.4 38,24.2 C38.5,25 38.8,25.9 39,26.8 C39.2,27.7 39.1,28.7 39,29.6 C38.8,30.5 38.5,31.4 38,32.1 C37.5,32.9 36.9,33.6 36.1,34.1 C35.3,34.7 34.5,35.1 33.6,35.3 C32.7,35.5 31.8,35.6 30.8,35.5 C29.8,35.4 28.9,35 28.1,34.5 L25.2,32.6 L21.7,38.1 L16.7,35 Z M27.9,28.4 L30.5,30.1 C30.8,30.3 31.2,30.3 31.6,30.2 C32,30.1 32.5,29.7 33,29 C33.5,28.3 33.7,27.7 33.5,27.2 C33.4,26.7 33.2,26.4 32.9,26.2 L30.4,24.6 L27.9,28.4 Z" id="logo--Shape"></path>
                <polygon id="logo--Shape" points="51.5 48.1 49.4 52.7 35.6 46.4 44.4 27 58 33.2 55.9 37.8 47.7 34.1 46.5 36.8 53.5 40 51.5 44.3 44.5 41.1 43.1 44.2"></polygon>
                <polygon id="logo--Shape" points="75.6 43.9 69.7 42.2 65.2 57.8 59.6 56.2 64.1 40.6 58.2 38.9 59.6 34 77 39"></polygon>
                <path d="M86.7,56.7 C87.4,56.8 88,56.7 88.5,56.5 C89,56.3 89.4,55.9 89.8,55.5 C90.2,55 90.4,54.5 90.7,53.9 C91,53.3 91.1,52.6 91.1,51.9 L92.4,41 L98.2,41.7 L96.9,52.6 C96.7,54.1 96.4,55.4 95.9,56.7 C95.4,57.9 94.7,59 93.8,59.8 C92.9,60.6 91.8,61.3 90.5,61.7 C89.2,62.1 87.8,62.2 86.2,62 C84.5,61.8 83.1,61.3 82,60.6 C80.9,59.9 80,59 79.3,58 C78.6,57 78.2,55.8 78,54.5 C77.8,53.2 77.8,51.8 77.9,50.4 L79.2,39.5 L85,40.2 L83.7,51.1 C83.6,51.8 83.6,52.5 83.7,53.1 C83.8,53.8 83.9,54.4 84.2,54.9 C84.4,55.4 84.8,55.9 85.2,56.2 C85.5,56.4 86,56.7 86.7,56.7 Z" id="logo--Shape"></path>
                <path d="M114.9,48 C114.3,47.7 113.7,47.4 113,47.1 C112.5,46.9 111.8,46.7 111.2,46.5 C110.5,46.3 109.9,46.2 109.2,46.3 C108.7,46.3 108.3,46.4 108,46.6 C107.7,46.8 107.6,47 107.6,47.4 C107.6,47.7 107.7,47.9 107.9,48.1 C108.1,48.3 108.4,48.4 108.7,48.6 C109,48.7 109.5,48.9 110,49 C110.5,49.1 111.1,49.3 111.7,49.4 C112.7,49.7 113.6,50 114.4,50.3 C115.2,50.6 115.9,51 116.5,51.5 C117.1,52 117.5,52.5 117.9,53.2 C118.2,53.9 118.4,54.7 118.5,55.7 C118.6,57 118.4,58.1 117.9,59 C117.5,59.9 116.9,60.6 116.1,61.2 C115.4,61.8 114.5,62.2 113.5,62.4 C112.5,62.7 111.6,62.8 110.6,62.9 C109.8,62.9 109,62.9 108.2,62.8 C107.4,62.7 106.6,62.6 105.7,62.4 C104.9,62.2 104.1,62 103.3,61.7 C102.5,61.4 101.8,61.1 101.2,60.8 L103.5,55.6 C104.2,56 105,56.4 105.7,56.7 C106.4,57 107.1,57.2 107.9,57.4 C108.7,57.6 109.5,57.7 110.4,57.7 C111,57.7 111.5,57.6 111.7,57.4 C111.9,57.2 112.1,57 112,56.7 C112,56.4 111.9,56.2 111.6,56 C111.3,55.8 111,55.6 110.5,55.5 C110.1,55.4 109.5,55.2 109,55.1 C108.5,55 107.8,54.8 107.2,54.6 C106.2,54.3 105.4,54 104.7,53.7 C104,53.4 103.4,53 103,52.5 C102.5,52 102.2,51.5 102,50.9 C101.8,50.3 101.6,49.6 101.6,48.8 C101.6,47.6 101.7,46.6 102.1,45.7 C102.5,44.8 103,44 103.8,43.4 C104.6,42.8 105.3,42.3 106.3,41.9 C107.2,41.6 108.2,41.4 109.3,41.3 C110.1,41.3 110.8,41.3 111.6,41.4 C112.3,41.5 113.1,41.7 113.8,41.9 C114.5,42.1 115.2,42.3 115.8,42.6 C116.4,42.8 117,43.1 117.5,43.3 L114.9,48 Z" id="logo--Shape"></path>
                <polygon id="logo--Shape" points="124.1 39.9 130.8 52.8 132.2 38.3 138.2 37.1 134.6 59.5 129.8 60.4 118 41.1"></polygon>
                <polygon id="logo--Shape" points="147.2 56.5 140 36.4 145.5 34.4 150.9 49.7 160 46.5 161.7 51.3"></polygon>
                <path d="M175.3,44.6 C173.9,45.4 172.4,45.8 171,45.9 C169.5,46 168.2,45.8 166.9,45.4 C165.6,45 164.4,44.3 163.3,43.4 C162.2,42.5 161.3,41.5 160.7,40.2 C160,39 159.6,37.7 159.5,36.3 C159.3,34.9 159.5,33.5 159.8,32.2 C160.2,30.9 160.8,29.6 161.7,28.5 C162.6,27.4 163.7,26.4 165.1,25.6 C166.5,24.8 168,24.4 169.4,24.3 C170.9,24.2 172.2,24.4 173.6,24.8 C174.9,25.2 176.1,25.9 177.2,26.8 C178.3,27.7 179.1,28.7 179.8,29.9 C180.5,31.1 180.9,32.4 181,33.8 C181.1,35.2 181,36.6 180.7,37.9 C180.3,39.2 179.7,40.5 178.8,41.6 C177.8,42.9 176.7,43.9 175.3,44.6 Z M165.9,37.5 C166.2,38.1 166.7,38.7 167.2,39.2 C167.7,39.7 168.2,40.1 168.8,40.3 C169.4,40.6 170,40.7 170.7,40.7 C171.4,40.7 172.1,40.5 172.8,40.1 C173.5,39.7 174.1,39.2 174.5,38.6 C174.9,38 175.1,37.4 175.2,36.7 C175.3,36 175.3,35.4 175.1,34.7 C174.9,34 174.7,33.4 174.4,32.7 C174.1,32.1 173.6,31.5 173.1,31 C172.6,30.5 172.1,30.1 171.4,29.9 C170.7,29.7 170.2,29.5 169.5,29.6 C168.8,29.6 168.1,29.8 167.4,30.2 C166.7,30.6 166.1,31.1 165.7,31.7 C165.3,32.3 165.1,32.9 165,33.5 C164.9,34.2 164.9,34.8 165.1,35.5 C165.3,36.2 165.5,36.9 165.9,37.5 Z" id="logo--Shape"></path>
                <path d="M200.1,25.2 C199.7,27.2 198.8,28.7 197.2,30 C196.1,30.9 194.9,31.5 193.7,31.9 C192.4,32.3 191.1,32.4 189.8,32.3 C188.5,32.2 187.2,31.7 185.9,31 C184.6,30.3 183.4,29.3 182.3,27.9 C181.4,26.7 180.7,25.5 180.3,24.1 C179.9,22.7 179.8,21.4 180,20 C180.2,18.6 180.6,17.3 181.3,16.1 C182,14.8 182.9,13.7 184.1,12.8 C184.8,12.2 185.6,11.7 186.4,11.3 C187.2,10.9 188,10.6 188.9,10.5 C189.7,10.3 190.6,10.3 191.4,10.4 C192.2,10.5 193,10.7 193.8,11 L192.5,16.3 C191.6,15.9 190.7,15.8 189.8,15.9 C188.8,16 188,16.4 187.2,17 C186.7,17.4 186.2,18 186,18.5 C185.7,19.1 185.6,19.7 185.6,20.4 C185.6,21.1 185.7,21.7 185.9,22.4 C186.1,23.1 186.5,23.8 187,24.4 C187.5,25.1 188.1,25.6 188.7,25.9 C189.3,26.3 189.9,26.5 190.6,26.6 C191.2,26.7 191.9,26.7 192.5,26.5 C193.1,26.3 193.7,26 194.3,25.6 C195.6,24.5 196.4,23 196.5,21.1 L193.6,23.4 L191,20.1 L197.8,14.6 L204.9,23.4 L201.1,26.4 L200.1,25.2 Z" id="logo--Shape"></path>
                <polygon id="logo--Shape" points="209.1 19.1 193.7 4.3 197.8 0.1 213.2 14.9"></polygon>
            </g>
            <path d="M172.7,339.1 C80.9,339.1 6.3,264.4 6.3,172.7 C6.3,81 80.9,6.3 172.7,6.3 C264.5,6.3 339.1,81 339.1,172.7 C339.1,264.4 264.4,339.1 172.7,339.1 Z M172.7,14.8 C85.6,14.8 14.8,85.6 14.8,172.7 C14.8,259.8 85.6,330.6 172.7,330.6 C259.8,330.6 330.6,259.8 330.6,172.7 C330.6,85.6 259.8,14.8 172.7,14.8 Z" id="logo--Shape" fill="#004A97"></path>
            <path d="M146.3,275.2 L145.9,275.2 C106.3,264.9 75.9,232.2 68.5,191.9 C68.4,191.1 68.9,190.4 69.6,190.2 C70.4,190.1 71.1,190.6 71.2,191.3 C78.4,230.5 108,262.3 146.5,272.3 C147.3,272.5 147.7,273.3 147.5,274 C147.5,274.8 147,275.2 146.3,275.2 Z" id="logo--Shape" fill="#6EC4E9"></path>
            <path d="M172.7,278.5 C171.9,278.5 171.3,277.9 171.3,277.1 C171.3,276.3 171.9,275.7 172.7,275.7 C177.4,275.7 182.1,275.4 186.8,274.7 C187.6,274.6 188.3,275.1 188.4,275.9 C188.5,276.7 188,277.4 187.2,277.5 C182.4,278.2 177.5,278.5 172.7,278.5 Z" id="logo--Shape" fill="#6EC4E9"></path>
            <path d="M204.8,273.5 C204.2,273.5 203.6,273.1 203.5,272.5 C203.3,271.8 203.7,271 204.4,270.7 C227.7,263.2 247.6,247.5 260.5,226.6 C260.9,225.9 261.8,225.7 262.5,226.1 C263.2,226.5 263.4,227.4 263,228.1 C249.8,249.6 229.3,265.7 205.4,273.4 C205.1,273.5 205,273.5 204.8,273.5 Z" id="logo--Shape" fill="#6EC4E9"></path>
            <path d="M68.3,174.1 C67.5,174.1 66.9,173.5 66.9,172.7 C66.9,150.3 73.8,129 86.8,110.9 C87.3,110.3 88.1,110.1 88.8,110.6 C89.4,111.1 89.6,111.9 89.1,112.6 C76.4,130.2 69.7,151 69.7,172.7 C69.7,173.5 69,174.1 68.3,174.1 Z" id="logo--Shape" fill="#6EC4E9"></path>
        </g>
        <g id="logo--desktop" transform="translate(25.000000, 58.000000)">
            <polygon id="logo--Shape" fill="#004A97" points="13.3 130.7 1.3 118.7 13.3 106.7 25.3 118.7"></polygon>
            <circle id="logo--Oval" fill="#004A97" cx="13.3" cy="118.7" r="9.9"></circle>
            <circle id="logo--Oval" fill="#004A97" cx="290" cy="118.7" r="9.9"></circle>
            <path d="M213,17.2 C213.6,18.7 213.5,20.5 212.7,21.9 C212.7,22.8 212.5,23.8 212.1,24.6 C212,25.2 211.8,25.8 211.4,26.3 C241.7,45.9 261.8,80 261.8,118.7 C261.8,179.4 212.4,228.8 151.7,228.8 C91,228.8 41.6,179.4 41.6,118.7 C41.6,58 91,8.6 151.7,8.6 C167.6,8.6 182.8,12 196.4,18.1 C197.1,16.7 198.4,15.6 200.5,15.5 C201,14 202.1,12.6 203.9,12.3 C188.1,4.5 170.4,0.2 151.6,0.2 C86.3,-4.46864767e-15 33,53.3 33,118.7 C33,184.1 86.2,237.3 151.6,237.3 C217,237.3 270.2,184.1 270.2,118.7 C270.3,75.7 247.3,38 213,17.2 Z" id="logo--Shape" fill="#004A97"></path>
            <g id="logo--Group" transform="translate(0.000000, 90.000000)" fill="#004A97">
                <path d="M5,59.5 C4.3,59.5 3.7,59 3.6,58.4 C1.7,48.7 0.7,38.7 0.7,28.8 C0.7,19.7 1.5,10.6 3.1,1.7 C3.2,0.9 4,0.4 4.7,0.6 C5.5,0.7 6,1.5 5.8,2.2 C4.2,10.9 3.4,19.9 3.4,28.8 C3.4,38.6 4.4,48.4 6.3,57.9 C6.5,58.7 6,59.4 5.2,59.6 C5.2,59.5 5.1,59.5 5,59.5 Z" id="logo--Shape"></path>
                <path d="M26.5,55.2 C25.8,55.2 25.2,54.7 25.1,54.1 C23.5,45.8 22.6,37.3 22.6,28.8 C22.6,21 23.3,13.2 24.7,5.6 C24.8,4.8 25.6,4.3 26.3,4.5 C27.1,4.6 27.6,5.4 27.4,6.1 C26.1,13.5 25.4,21.1 25.4,28.8 C25.4,37.1 26.2,45.5 27.8,53.6 C28,54.4 27.5,55.1 26.7,55.3 C26.7,55.2 26.6,55.2 26.5,55.2 Z" id="logo--Shape"></path>
                <path d="M15.9,57.3 C15.2,57.3 14.6,56.8 14.5,56.2 C12.7,47.2 11.8,38 11.8,28.7 C11.8,20.3 12.6,11.8 14,3.6 C14.1,2.8 14.9,2.3 15.6,2.5 C16.4,2.6 16.9,3.4 16.7,4.1 C15.2,12.2 14.5,20.4 14.5,28.7 C14.5,37.8 15.4,46.8 17.1,55.6 C17.3,56.4 16.8,57.1 16,57.3 C16.1,57.3 16,57.3 15.9,57.3 Z" id="logo--Shape"></path>
            </g>
            <g id="logo--Group" transform="translate(275.000000, 90.000000)" fill="#004A97">
                <path d="M24.1,59.5 L23.8,59.5 C23,59.4 22.5,58.6 22.7,57.9 C24.3,49.2 25.1,40.2 25.1,31.3 C25.1,21.5 24.1,11.7 22.2,2.2 C22,1.4 22.5,0.7 23.3,0.5 C24.1,0.3 24.8,0.8 25,1.6 C26.9,11.3 27.9,21.3 27.9,31.2 C27.9,40.3 27.1,49.4 25.5,58.3 C25.4,59 24.8,59.5 24.1,59.5 Z" id="logo--Shape"></path>
                <path d="M2.5,55.5 L2.2,55.5 C1.4,55.4 0.9,54.6 1.1,53.9 C2.4,46.5 3.1,38.9 3.1,31.2 C3.1,22.9 2.3,14.5 0.7,6.4 C0.5,5.6 1,4.9 1.8,4.7 C2.6,4.5 3.3,5 3.5,5.8 C5.1,14.1 6,22.6 6,31.1 C6,38.9 5.3,46.7 3.9,54.3 C3.8,55.1 3.2,55.5 2.5,55.5 Z" id="logo--Shape"></path>
                <path d="M13.1,57.5 L12.8,57.5 C12,57.4 11.5,56.6 11.7,55.9 C13.2,47.8 13.9,39.6 13.9,31.3 C13.9,22.2 13,13.2 11.3,4.4 C11.1,3.6 11.6,2.9 12.4,2.7 C13.2,2.5 13.9,3 14.1,3.8 C15.9,12.8 16.8,22 16.8,31.3 C16.8,39.7 16,48.2 14.6,56.4 C14.4,57 13.8,57.5 13.1,57.5 Z" id="logo--Shape"></path>
            </g>
            <circle id="logo--Oval" fill="#FFFFFF" cx="13.3" cy="118.7" r="4.1"></circle>
            <circle id="logo--Oval" fill="#FFFFFF" cx="290" cy="118.7" r="4.1"></circle>
        </g>
        <g id="logo--kattila-mobile" transform="translate(91.000000, 63.000000)">
            <path d="M171,100.4 C171,91.8 164,84.9 155.5,84.9 C152.2,84.9 149,86 146.4,87.9 C145.8,87.4 145.3,86.9 144.7,86.4 C149.8,82.8 152.5,78.6 152.5,74.3 C152.5,66.1 143,58.8 126.4,54 C133.3,43.8 141.2,31.7 148.2,20.2 C151,15.7 149.5,9.7 145,6.9 C142.8,5.6 140.2,5.1 137.7,5.7 C135.2,6.3 133.1,7.8 131.7,10 C123.8,22.9 115.4,37.7 108.6,50.2 C101.2,49.2 93.5,48.7 85.6,48.7 C80,48.7 74.6,49 69.5,49.4 L64,53 L64,53 L49.2,62.4 C48.4,62.8 47.4,63.1 46.4,63.1 L46.4,63.1 C45.3,63.1 44.2,62.8 43.4,62.2 L39.6,59.7 C39.3,59.5 39,59.2 38.7,59 C38.6,58.9 38.5,58.8 38.4,58.7 C38.3,58.6 38.3,58.5 38.2,58.5 C38.1,58.4 38.1,58.3 38,58.2 C37.9,58.1 37.9,58 37.8,57.9 C37.6,57.5 37.4,57 37.3,56.5 C25.8,61.1 18.8,67.3 18.8,74.2 C18.8,78.6 21.5,82.7 26.6,86.3 C26,86.8 25.5,87.3 24.9,87.8 C22.3,85.9 19.1,84.9 15.8,84.9 C7.2,84.9 0.3,91.9 0.3,100.4 C0.3,106.1 3.4,111.2 8.1,113.9 C6.7,118.6 6,123.5 6,128.3 C6,143.5 12.9,157.4 24.4,168.2 C24.6,177.6 27.6,190.8 33.9,190.8 C38.2,190.8 40.7,184.7 41.9,180.5 C54.5,187 69.5,190.8 85.7,190.8 C101.9,190.8 116.9,187 129.5,180.5 C130.7,184.7 133.2,190.8 137.5,190.8 C143.8,190.8 146.8,177.7 147,168.2 C158.5,157.4 165.4,143.5 165.4,128.3 C165.4,123.3 164.7,118.6 163.3,113.9 C167.9,111.2 171,106.1 171,100.4 Z M155.4,95.4 C158.2,95.4 160.4,97.7 160.4,100.4 C160.4,101.8 159.8,103 158.9,103.9 C157.3,100.9 155.5,98.2 153.6,95.6 C154.2,95.5 154.8,95.4 155.4,95.4 Z M102.5,98.9 C97,99.4 91.4,99.7 85.7,99.7 C80.8,99.7 75.9,99.5 71.2,99.1 C70.4,99 69.8,98.3 69.9,97.5 C70,96.7 70.7,96.1 71.5,96.2 C81.5,97 92.3,97 102.3,96 C103.1,95.9 103.8,96.5 103.9,97.3 C103.9,98.1 103.3,98.8 102.5,98.9 Z M135.8,12.5 C136.5,11.4 137.6,10.6 138.9,10.2 C140.2,9.9 141.5,10.1 142.7,10.8 C145.1,12.2 145.8,15.3 144.4,17.7 C143.6,19 142.8,20.4 141.9,21.7 L141.9,21.3 C142.1,18.9 141.2,16.9 139.6,15.9 C138.9,15.5 138.1,15.2 137.2,15.2 C136,15.2 134.6,15.7 133.4,16.5 C134.1,15.2 135,13.8 135.8,12.5 Z M133.1,23.4 C134.5,21.1 136.3,19.9 137.1,19.9 C137.4,20.4 137.4,22.5 135.8,25.1 C134.3,27.5 132.5,28.6 131.8,28.6 C131.6,28.1 131.6,26 133.1,23.4 Z M127.1,27.1 C126.9,29.5 127.8,31.5 129.4,32.5 C130.1,32.9 130.9,33.2 131.8,33.2 C132.9,33.2 134.1,32.8 135.3,32.1 C122,52.8 108.4,72.1 105.1,76.6 C104.5,76.6 103.9,76.6 103.3,76.5 C102.2,76.5 101,76.4 99.9,76.3 C103.8,68.9 115.2,47.6 127.1,27.1 Z M39.2,65.3 C39.9,65 40.8,65.3 41.1,66 C41.4,66.7 41.1,67.6 40.4,67.9 C36.7,69.6 34.6,71.4 34.6,73.1 C34.6,75 36.9,76.9 41.1,78.7 C44.8,75.3 50.8,72.6 58.4,70.6 C58.3,69.3 58.8,68 59.7,67 L63.1,63.2 C63.8,62.4 64.8,61.8 66,61.5 C66.2,61.4 66.4,61.4 66.7,61.4 C66.7,61.2 66.7,61 66.8,60.7 C66.9,59.6 67.4,58.5 68.2,57.7 L71.6,54 C72.6,52.9 73.9,52.3 75.3,52.3 L76,52.3 C77.8,52.6 79.3,53.8 80,55.5 L81.2,58.3 C86.7,58.2 92.2,58.3 97.5,58.6 C98.3,58.6 98.9,59.3 98.9,60.1 C98.9,60.9 98.2,61.5 97.4,61.5 C92.5,61.2 87.5,61.1 82.4,61.2 L85,67.5 L85.7,67.5 C90.3,67.5 94.9,67.8 99.2,68.2 C97.3,71.7 95.9,74.4 95.2,75.8 L95,75.8 C93.8,75.5 92.5,76.3 92.3,77.6 C92,78.8 92.8,80.1 94.1,80.3 C97,80.9 100.3,81 103.4,81.1 C105.5,81.2 107.5,81.2 109.2,81.5 L109.5,81.5 C110.6,81.5 111.6,80.7 111.8,79.5 C111.9,78.5 111.4,77.6 110.6,77.2 C111.7,75.7 113.1,73.6 114.8,71.2 C121.7,73.2 126.9,75.8 130.2,78.8 C134.6,77 137,75 137,73.1 C137,71.8 135.6,70.2 133,68.8 C132.3,68.4 132,67.5 132.4,66.8 C132.8,66.1 133.7,65.8 134.4,66.2 C138.1,68.2 139.9,70.5 139.9,73 C139.9,76.4 136.3,79.3 130.5,81.6 C130.4,81.7 130.2,81.7 130.1,81.8 C119.7,85.8 102.5,87.8 85.9,87.8 C69.1,87.8 51.7,85.7 41.4,81.6 C41.3,81.6 41.1,81.5 41,81.4 C35.4,79.1 31.9,76.3 31.9,72.9 C31.7,70.2 34.2,67.5 39.2,65.3 Z M15.9,95.5 C16.5,95.5 17.1,95.6 17.6,95.8 C15.6,98.4 13.8,101.1 12.3,103.8 C11.5,102.9 10.9,101.7 10.9,100.4 C11,97.7 13.2,95.5 15.9,95.5 Z" id="logo--mobile" fill="#004A97"></path>
            <g id="logo--Group" transform="translate(41.000000, 0.000000)" fill="#6EC4E9">
                <path d="M32.2,19.2 L27.8,16.6 C27.6,16.5 27.5,16.3 27.4,16.1 C27.3,15.9 27.3,15.7 27.3,15.5 L28,9.6 C28,9.4 28,9.2 27.9,9.2 C27.8,9.1 27.7,9.2 27.5,9.3 L22.8,12.8 C22.6,12.9 22.4,13 22.1,13 C21.9,13 21.6,13 21.5,12.9 L17.1,10.3 C16.9,10.2 16.8,10.1 16.8,9.9 C16.8,9.7 16.9,9.6 17,9.5 L29.4,1.1 C29.6,1 29.8,0.9 30,0.9 C30.2,0.9 30.4,0.9 30.6,1 L33.7,2.8 C33.9,2.9 34,3.1 34.1,3.3 C34.2,3.5 34.3,3.7 34.2,3.9 L32.8,18.8 C32.8,19 32.7,19.2 32.6,19.2 C32.5,19.3 32.4,19.3 32.2,19.2 Z" id="logo--Shape"></path>
                <path d="M1.1,18 L4.5,15.2 C4.7,15.1 4.8,15 5,15 C5.2,15 5.4,15.1 5.5,15.3 L6.4,16.5 C6.5,16.7 6.7,16.8 6.9,16.8 C7.1,16.8 7.3,16.8 7.5,16.7 C9.1,16 10.9,15.6 12.8,15.6 C13,15.6 13.2,15.7 13.3,15.8 C13.4,15.9 13.5,16.1 13.5,16.3 L13.8,20.3 C13.8,20.5 13.7,20.7 13.6,20.8 C13.5,21 13.3,21 13.1,21 C11.9,21.1 10.9,21.4 10.1,21.7 C9.3,22 8.5,22.4 8,22.9 C7.8,23 7.6,23.2 7.4,23.4 L6.8,24 C6.6,24.2 6.6,24.4 6.5,24.7 C6.5,24.9 6.5,25.1 6.7,25.4 C6.9,25.6 7.2,25.7 7.7,25.6 C8.2,25.5 8.6,25.4 9.2,25.1 C9.7,24.9 10.2,24.7 10.6,24.4 C11,24.2 11.3,24 11.4,23.9 C12,23.6 12.8,23.2 13.6,22.9 C14.4,22.6 15.3,22.4 16.2,22.3 C17.1,22.2 18,22.4 18.9,22.7 C19.8,23 20.7,23.7 21.5,24.7 C22.7,26.2 23.2,27.7 23.1,29.2 C22.9,30.7 22.3,32.1 21.1,33.5 C21,33.7 20.9,33.8 20.9,34 C20.9,34.2 20.9,34.4 21.1,34.5 L22.1,35.7 C22.2,35.9 22.3,36 22.3,36.2 C22.3,36.4 22.2,36.6 22,36.7 L18.6,39.5 C18.4,39.6 18.3,39.7 18.1,39.7 C17.9,39.7 17.7,39.6 17.6,39.4 L16.4,37.9 C16.3,37.7 16.1,37.6 15.9,37.6 C15.7,37.5 15.5,37.6 15.3,37.6 C14.4,38 13.5,38.2 12.6,38.4 C11.7,38.5 10.8,38.6 10,38.6 C9.8,38.6 9.6,38.5 9.5,38.4 C9.4,38.2 9.3,38.1 9.3,37.9 L9,33.9 C9,33.7 9.1,33.5 9.2,33.4 C9.3,33.2 9.5,33.2 9.7,33.1 C11,33 12.1,32.7 13.2,32.4 C14.3,32.1 15.1,31.6 15.9,31 C16.6,30.5 17,29.9 17.2,29.5 C17.4,29 17.3,28.6 17,28.2 C16.8,28 16.6,27.9 16.4,27.9 C16.2,27.9 15.9,28 15.6,28.1 C15.3,28.2 14.9,28.4 14.6,28.6 C14.2,28.8 13.8,29 13.4,29.3 C13,29.5 12.6,29.8 12,30 C11.5,30.3 10.9,30.5 10.3,30.8 C9.7,31 9.1,31.2 8.4,31.3 C7.7,31.4 7.1,31.5 6.4,31.4 C5.7,31.3 5.1,31.1 4.4,30.7 C3.7,30.4 3.1,29.8 2.5,29.1 C1.9,28.4 1.5,27.7 1.3,27 C1.1,26.3 0.9,25.6 0.9,24.9 C0.9,24.2 1,23.6 1.3,23 C1.5,22.4 1.8,21.8 2.2,21.2 C2.3,21 2.4,20.8 2.4,20.6 C2.4,20.4 2.3,20.2 2.2,20.1 L1.2,18.8 C1.1,18.6 1,18.5 1,18.3 C0.8,18.3 0.9,18.1 1.1,18 Z" id="logo--Shape"></path>
                <path d="M40.5,72.2 L38.1,74.8 C38,75 37.8,75.1 37.5,75.1 C37.3,75.2 37,75.2 36.8,75.1 L22.5,70.7 C22.3,70.6 22.2,70.5 22.1,70.4 C22.1,70.2 22.1,70.1 22.2,69.9 L25.6,66.1 C25.7,65.9 25.9,65.8 26.2,65.8 C26.4,65.7 26.7,65.7 26.9,65.8 L32.5,67.7 C32.7,67.8 32.8,67.8 32.9,67.7 C33,67.6 33,67.5 32.9,67.3 L30.5,61.9 C30.4,61.7 30.4,61.5 30.4,61.3 C30.4,61.1 30.5,60.9 30.7,60.7 L34.1,57 C34.2,56.8 34.4,56.8 34.6,56.8 C34.8,56.8 34.9,56.9 34.9,57.1 L40.6,70.9 C40.7,71.1 40.7,71.3 40.7,71.6 C40.7,71.8 40.6,72 40.5,72.2 Z" id="logo--Shape"></path>
                <path d="M32.3,42 L6.4,58.5 C6.2,58.6 6,58.6 5.8,58.6 C5.6,58.6 5.4,58.5 5.2,58.4 L1.4,55.9 C1.2,55.8 1.1,55.7 1.1,55.5 C1.1,55.3 1.2,55.2 1.4,55.1 L27.3,38.6 C27.5,38.5 27.7,38.4 27.9,38.4 C28.1,38.4 28.4,38.5 28.5,38.6 L32.3,41.1 C32.5,41.2 32.6,41.3 32.6,41.5 C32.6,41.7 32.5,41.9 32.3,42 Z" id="logo--Shape"></path>
            </g>
            <g id="logo--Group" transform="translate(11.000000, 120.000000)" fill="#6EC4E9">
                <path d="M9.7,16.7 L9.4,16.7 L9.1,16.7 C8.4,16.9 7.8,17.5 7.8,18.3 L7.8,18.3 L7.8,18.3 C7.8,19.1 8.4,19.7 9.1,19.9 L9.4,19.9 L9.7,19.9 C10.4,19.7 11,19.1 11,18.3 L11,18.3 L11,18.3 C11,17.5 10.4,16.9 9.7,16.7 Z" id="logo--Shape"></path>
                <path d="M107.2,16.7 L106.9,16.7 L106.6,16.7 C105.9,16.9 105.3,17.5 105.3,18.3 L105.3,18.3 L105.3,18.3 C105.3,19.1 105.9,19.7 106.6,19.9 L106.9,19.9 L107.2,19.9 C107.9,19.7 108.5,19.1 108.5,18.3 L108.5,18.3 L108.5,18.3 C108.5,17.5 107.9,16.9 107.2,16.7 Z" id="logo--Shape"></path>
                <path d="M99,16.7 L98.7,16.7 L98.4,16.7 C97.7,16.9 97.1,17.5 97.1,18.3 L97.1,18.3 L97.1,18.3 C97.1,19.1 97.7,19.7 98.4,19.9 L98.7,19.9 L99,19.9 C99.7,19.7 100.3,19.1 100.3,18.3 L100.3,18.3 L100.3,18.3 C100.3,17.5 99.8,16.9 99,16.7 Z" id="logo--Shape"></path>
                <circle id="logo--Oval" cx="102.8" cy="14.3" r="1.6"></circle>
                <path d="M123.4,16.7 L123.1,16.7 L122.8,16.7 C122.1,16.9 121.5,17.5 121.5,18.3 L121.5,18.3 L121.5,18.3 C121.5,19.1 122.1,19.7 122.8,19.9 L123.1,19.9 L123.4,19.9 C124.1,19.7 124.7,19.1 124.7,18.3 L124.7,18.3 L124.7,18.3 C124.7,17.5 124.2,16.9 123.4,16.7 Z" id="logo--Shape"></path>
                <path d="M115.3,16.7 L115,16.7 L114.7,16.7 C114,16.9 113.4,17.5 113.4,18.3 L113.4,18.3 L113.4,18.3 C113.4,19.1 114,19.7 114.7,19.9 L115,19.9 L115.3,19.9 C116,19.7 116.6,19.1 116.6,18.3 L116.6,18.3 L116.6,18.3 C116.6,17.5 116,16.9 115.3,16.7 Z" id="logo--Shape"></path>
                <circle id="logo--Oval" cx="123.1" cy="10.2" r="1.6"></circle>
                <circle id="logo--Oval" cx="115" cy="10.2" r="1.6"></circle>
                <circle id="logo--Oval" cx="110.9" cy="14.3" r="1.6"></circle>
                <circle id="logo--Oval" cx="119" cy="14.3" r="1.6"></circle>
                <path d="M139.7,16.7 L139.4,16.7 L139.1,16.7 C138.4,16.9 137.8,17.5 137.8,18.3 L137.8,18.3 L137.8,18.3 C137.8,19.1 138.4,19.7 139.1,19.9 L139.4,19.9 L139.7,19.9 C140.4,19.7 141,19.1 141,18.3 L141,18.3 L141,18.3 C141,17.5 140.4,16.9 139.7,16.7 Z" id="logo--Shape"></path>
                <path d="M131.5,16.7 L131.2,16.7 L130.9,16.7 C130.2,16.9 129.6,17.5 129.6,18.3 L129.6,18.3 L129.6,18.3 C129.6,19.1 130.2,19.7 130.9,19.9 L131.2,19.9 L131.5,19.9 C132.2,19.7 132.8,19.1 132.8,18.3 L132.8,18.3 L132.8,18.3 C132.8,17.5 132.3,16.9 131.5,16.7 Z" id="logo--Shape"></path>
                <circle id="logo--Oval" cx="139.3" cy="10.2" r="1.6"></circle>
                <circle id="logo--Oval" cx="131.2" cy="10.2" r="1.6"></circle>
                <circle id="logo--Oval" cx="127.1" cy="14.3" r="1.6"></circle>
                <circle id="logo--Oval" cx="135.3" cy="14.3" r="1.6"></circle>
                <circle id="logo--Oval" cx="127.1" cy="6.1" r="1.6"></circle>
                <circle id="logo--Oval" cx="147.5" cy="10.2" r="1.6"></circle>
                <circle id="logo--Oval" cx="143.4" cy="14.3" r="1.6"></circle>
                <circle id="logo--Oval" cx="143.4" cy="6.1" r="1.6"></circle>
                <circle id="logo--Oval" cx="9.3" cy="26.4" r="1.6"></circle>
                <circle id="logo--Oval" cx="5.3" cy="22.4" r="1.6"></circle>
                <circle id="logo--Oval" cx="25.6" cy="34.6" r="1.6"></circle>
                <circle id="logo--Oval" cx="17.5" cy="34.6" r="1.6"></circle>
                <circle id="logo--Oval" cx="25.6" cy="26.4" r="1.6"></circle>
                <circle id="logo--Oval" cx="17.5" cy="26.4" r="1.6"></circle>
                <circle id="logo--Oval" cx="13.4" cy="30.5" r="1.6"></circle>
                <circle id="logo--Oval" cx="21.5" cy="30.5" r="1.6"></circle>
                <circle id="logo--Oval" cx="13.4" cy="22.4" r="1.6"></circle>
                <circle id="logo--Oval" cx="21.5" cy="22.4" r="1.6"></circle>
                <circle id="logo--Oval" cx="41.8" cy="34.6" r="1.6"></circle>
                <circle id="logo--Oval" cx="33.7" cy="34.6" r="1.6"></circle>
                <circle id="logo--Oval" cx="33.7" cy="26.4" r="1.6"></circle>
                <circle id="logo--Oval" cx="29.6" cy="30.5" r="1.6"></circle>
                <circle id="logo--Oval" cx="37.8" cy="30.5" r="1.6"></circle>
                <circle id="logo--Oval" cx="58.1" cy="34.6" r="1.6"></circle>
                <circle id="logo--Oval" cx="50" cy="34.6" r="1.6"></circle>
                <circle id="logo--Oval" cx="50" cy="26.4" r="1.6"></circle>
                <circle id="logo--Oval" cx="45.9" cy="30.5" r="1.6"></circle>
                <circle id="logo--Oval" cx="54" cy="30.5" r="1.6"></circle>
                <circle id="logo--Oval" cx="74.3" cy="34.6" r="1.6"></circle>
                <circle id="logo--Oval" cx="66.2" cy="34.6" r="1.6"></circle>
                <circle id="logo--Oval" cx="74.3" cy="26.4" r="1.6"></circle>
                <circle id="logo--Oval" cx="66.2" cy="26.4" r="1.6"></circle>
                <circle id="logo--Oval" cx="62.1" cy="30.5" r="1.6"></circle>
                <circle id="logo--Oval" cx="70.3" cy="30.5" r="1.6"></circle>
                <circle id="logo--Oval" cx="90.6" cy="34.6" r="1.6"></circle>
                <circle id="logo--Oval" cx="82.5" cy="34.6" r="1.6"></circle>
                <circle id="logo--Oval" cx="90.6" cy="26.4" r="1.6"></circle>
                <circle id="logo--Oval" cx="82.5" cy="26.4" r="1.6"></circle>
                <circle id="logo--Oval" cx="78.4" cy="30.5" r="1.6"></circle>
                <circle id="logo--Oval" cx="86.5" cy="30.5" r="1.6"></circle>
                <path d="M86.5,20.8 L86.2,20.8 C86.1,20.8 86,20.9 85.9,20.9 C85.3,21.2 84.9,21.7 84.9,22.4 C84.9,23.3 85.6,24 86.5,24 C87.4,24 88.1,23.3 88.1,22.4 C88.1,21.5 87.4,20.8 86.5,20.8 Z" id="logo--Shape"></path>
                <circle id="logo--Oval" cx="106.8" cy="34.6" r="1.6"></circle>
                <circle id="logo--Oval" cx="98.7" cy="34.6" r="1.6"></circle>
                <circle id="logo--Oval" cx="106.8" cy="26.4" r="1.6"></circle>
                <circle id="logo--Oval" cx="98.7" cy="26.4" r="1.6"></circle>
                <circle id="logo--Oval" cx="94.6" cy="30.5" r="1.6"></circle>
                <circle id="logo--Oval" cx="102.8" cy="30.5" r="1.6"></circle>
                <circle id="logo--Oval" cx="94.6" cy="22.4" r="1.6"></circle>
                <circle id="logo--Oval" cx="102.8" cy="22.4" r="1.6"></circle>
                <circle id="logo--Oval" cx="123.1" cy="34.6" r="1.6"></circle>
                <circle id="logo--Oval" cx="115" cy="34.6" r="1.6"></circle>
                <circle id="logo--Oval" cx="123.1" cy="26.4" r="1.6"></circle>
                <circle id="logo--Oval" cx="115" cy="26.4" r="1.6"></circle>
                <circle id="logo--Oval" cx="110.9" cy="30.5" r="1.6"></circle>
                <circle id="logo--Oval" cx="119" cy="30.5" r="1.6"></circle>
                <circle id="logo--Oval" cx="110.9" cy="22.4" r="1.6"></circle>
                <circle id="logo--Oval" cx="119" cy="22.4" r="1.6"></circle>
                <circle id="logo--Oval" cx="131.2" cy="34.6" r="1.6"></circle>
                <circle id="logo--Oval" cx="139.3" cy="26.4" r="1.6"></circle>
                <circle id="logo--Oval" cx="131.2" cy="26.4" r="1.6"></circle>
                <circle id="logo--Oval" cx="127.1" cy="30.5" r="1.6"></circle>
                <circle id="logo--Oval" cx="135.3" cy="30.5" r="1.6"></circle>
                <circle id="logo--Oval" cx="127.1" cy="22.4" r="1.6"></circle>
                <circle id="logo--Oval" cx="135.3" cy="22.4" r="1.6"></circle>
                <circle id="logo--Oval" cx="143.4" cy="22.4" r="1.6"></circle>
                <circle id="logo--Oval" cx="25.6" cy="42.7" r="1.6"></circle>
                <circle id="logo--Oval" cx="17.5" cy="42.7" r="1.6"></circle>
                <circle id="logo--Oval" cx="21.5" cy="46.8" r="1.6"></circle>
                <circle id="logo--Oval" cx="13.4" cy="38.6" r="1.6"></circle>
                <circle id="logo--Oval" cx="21.5" cy="38.6" r="1.6"></circle>
                <path d="M42.2,49.2 L41.9,49.2 L41.6,49.2 C40.9,49.4 40.3,50 40.3,50.8 L40.3,50.8 L40.3,50.8 C40.3,51.6 40.9,52.2 41.6,52.4 L41.9,52.4 L42.2,52.4 C42.9,52.2 43.5,51.6 43.5,50.8 L43.5,50.8 L43.5,50.8 C43.5,50 42.9,49.4 42.2,49.2 Z" id="logo--Shape"></path>
                <path d="M34,49.2 L33.7,49.2 L33.4,49.2 C32.7,49.4 32.1,50 32.1,50.8 L32.1,50.8 L32.1,50.8 C32.1,51.6 32.7,52.2 33.4,52.4 L33.7,52.4 L34,52.4 C34.7,52.2 35.3,51.6 35.3,50.8 L35.3,50.8 L35.3,50.8 C35.3,50 34.8,49.4 34,49.2 Z" id="logo--Shape"></path>
                <circle id="logo--Oval" cx="41.8" cy="42.7" r="1.6"></circle>
                <circle id="logo--Oval" cx="33.7" cy="42.7" r="1.6"></circle>
                <circle id="logo--Oval" cx="29.6" cy="46.8" r="1.6"></circle>
                <circle id="logo--Oval" cx="37.8" cy="46.8" r="1.6"></circle>
                <circle id="logo--Oval" cx="29.6" cy="38.6" r="1.6"></circle>
                <circle id="logo--Oval" cx="37.8" cy="38.6" r="1.6"></circle>
                <path d="M58.4,49.2 L58.1,49.2 L57.8,49.2 C57.1,49.4 56.5,50 56.5,50.8 L56.5,50.8 L56.5,50.8 C56.5,51.6 57.1,52.2 57.8,52.4 L58.1,52.4 L58.4,52.4 C59.1,52.2 59.7,51.6 59.7,50.8 L59.7,50.8 L59.7,50.8 C59.7,50 59.2,49.4 58.4,49.2 Z" id="logo--Shape"></path>
                <path d="M50.3,49.2 L50,49.2 L49.7,49.2 C49,49.4 48.4,50 48.4,50.8 L48.4,50.8 L48.4,50.8 C48.4,51.6 49,52.2 49.7,52.4 L50,52.4 L50.3,52.4 C51,52.2 51.6,51.6 51.6,50.8 L51.6,50.8 L51.6,50.8 C51.6,50 51,49.4 50.3,49.2 Z" id="logo--Shape"></path>
                <circle id="logo--Oval" cx="58.1" cy="42.7" r="1.6"></circle>
                <circle id="logo--Oval" cx="50" cy="42.7" r="1.6"></circle>
                <circle id="logo--Oval" cx="45.9" cy="46.8" r="1.6"></circle>
                <circle id="logo--Oval" cx="54" cy="46.8" r="1.6"></circle>
                <circle id="logo--Oval" cx="45.9" cy="38.6" r="1.6"></circle>
                <circle id="logo--Oval" cx="54" cy="38.6" r="1.6"></circle>
                <path d="M74.7,49.2 L74.4,49.2 L74.1,49.2 C73.4,49.4 72.8,50 72.8,50.8 L72.8,50.8 L72.8,50.8 C72.8,51.6 73.4,52.2 74.1,52.4 L74.4,52.4 L74.7,52.4 C75.4,52.2 76,51.6 76,50.8 L76,50.8 L76,50.8 C76,50 75.4,49.4 74.7,49.2 Z" id="logo--Shape"></path>
                <path d="M66.5,49.2 L66.2,49.2 L65.9,49.2 C65.2,49.4 64.6,50 64.6,50.8 L64.6,50.8 L64.6,50.8 C64.6,51.6 65.2,52.2 65.9,52.4 L66.2,52.4 L66.5,52.4 C67.2,52.2 67.8,51.6 67.8,50.8 L67.8,50.8 L67.8,50.8 C67.8,50 67.3,49.4 66.5,49.2 Z" id="logo--Shape"></path>
                <circle id="logo--Oval" cx="74.3" cy="42.7" r="1.6"></circle>
                <circle id="logo--Oval" cx="66.2" cy="42.7" r="1.6"></circle>
                <circle id="logo--Oval" cx="62.1" cy="46.8" r="1.6"></circle>
                <circle id="logo--Oval" cx="70.3" cy="46.8" r="1.6"></circle>
                <circle id="logo--Oval" cx="62.1" cy="38.6" r="1.6"></circle>
                <circle id="logo--Oval" cx="70.3" cy="38.6" r="1.6"></circle>
                <path d="M90.9,49.2 L90.6,49.2 L90.3,49.2 C89.6,49.4 89,50 89,50.8 L89,50.8 L89,50.8 C89,51.6 89.6,52.2 90.3,52.4 L90.6,52.4 L90.9,52.4 C91.6,52.2 92.2,51.6 92.2,50.8 L92.2,50.8 L92.2,50.8 C92.2,50 91.7,49.4 90.9,49.2 Z" id="logo--Shape"></path>
                <path d="M82.8,49.2 L82.5,49.2 L82.2,49.2 C81.5,49.4 80.9,50 80.9,50.8 L80.9,50.8 L80.9,50.8 C80.9,51.6 81.5,52.2 82.2,52.4 L82.5,52.4 L82.8,52.4 C83.5,52.2 84.1,51.6 84.1,50.8 L84.1,50.8 L84.1,50.8 C84.1,50 83.5,49.4 82.8,49.2 Z" id="logo--Shape"></path>
                <circle id="logo--Oval" cx="90.6" cy="42.7" r="1.6"></circle>
                <circle id="logo--Oval" cx="82.5" cy="42.7" r="1.6"></circle>
                <circle id="logo--Oval" cx="78.4" cy="46.8" r="1.6"></circle>
                <circle id="logo--Oval" cx="86.5" cy="46.8" r="1.6"></circle>
                <circle id="logo--Oval" cx="78.4" cy="38.6" r="1.6"></circle>
                <circle id="logo--Oval" cx="86.5" cy="38.6" r="1.6"></circle>
                <path d="M107.2,49.2 L106.9,49.2 L106.6,49.2 C105.9,49.4 105.3,50 105.3,50.8 L105.3,50.8 L105.3,50.8 C105.3,51.6 105.9,52.2 106.6,52.4 L106.9,52.4 L107.2,52.4 C107.9,52.2 108.5,51.6 108.5,50.8 L108.5,50.8 L108.5,50.8 C108.5,50 107.9,49.4 107.2,49.2 Z" id="logo--Shape"></path>
                <path d="M99,49.2 L98.7,49.2 L98.4,49.2 C97.7,49.4 97.1,50 97.1,50.8 L97.1,50.8 L97.1,50.8 C97.1,51.6 97.7,52.2 98.4,52.4 L98.7,52.4 L99,52.4 C99.7,52.2 100.3,51.6 100.3,50.8 L100.3,50.8 L100.3,50.8 C100.3,50 99.8,49.4 99,49.2 Z" id="logo--Shape"></path>
                <circle id="logo--Oval" cx="106.8" cy="42.7" r="1.6"></circle>
                <circle id="logo--Oval" cx="98.7" cy="42.7" r="1.6"></circle>
                <circle id="logo--Oval" cx="94.6" cy="46.8" r="1.6"></circle>
                <circle id="logo--Oval" cx="102.8" cy="46.8" r="1.6"></circle>
                <circle id="logo--Oval" cx="94.6" cy="38.6" r="1.6"></circle>
                <circle id="logo--Oval" cx="102.8" cy="38.6" r="1.6"></circle>
                <path d="M115.3,49.2 L115,49.2 L114.7,49.2 C114,49.4 113.4,50 113.4,50.8 L113.4,50.8 L113.4,50.8 C113.4,51.6 114,52.2 114.7,52.4 L115,52.4 L115.3,52.4 C116,52.2 116.6,51.6 116.6,50.8 L116.6,50.8 L116.6,50.8 C116.6,50 116,49.4 115.3,49.2 Z" id="logo--Shape"></path>
                <circle id="logo--Oval" cx="123.1" cy="42.7" r="1.6"></circle>
                <circle id="logo--Oval" cx="115" cy="42.7" r="1.6"></circle>
                <circle id="logo--Oval" cx="110.9" cy="46.8" r="1.6"></circle>
                <circle id="logo--Oval" cx="119" cy="46.8" r="1.6"></circle>
                <circle id="logo--Oval" cx="110.9" cy="38.6" r="1.6"></circle>
                <circle id="logo--Oval" cx="119" cy="38.6" r="1.6"></circle>
                <circle id="logo--Oval" cx="131.2" cy="42.7" r="1.6"></circle>
                <circle id="logo--Oval" cx="127.1" cy="46.8" r="1.6"></circle>
                <circle id="logo--Oval" cx="127.1" cy="38.6" r="1.6"></circle>
                <circle id="logo--Oval" cx="135.3" cy="38.6" r="1.6"></circle>
                <circle id="logo--Oval" cx="37.8" cy="54.9" r="1.6"></circle>
                <circle id="logo--Oval" cx="58.1" cy="58.9" r="1.6"></circle>
                <circle id="logo--Oval" cx="50" cy="58.9" r="1.6"></circle>
                <circle id="logo--Oval" cx="45.9" cy="54.9" r="1.6"></circle>
                <circle id="logo--Oval" cx="54" cy="54.9" r="1.6"></circle>
                <circle id="logo--Oval" cx="74.3" cy="58.9" r="1.6"></circle>
                <circle id="logo--Oval" cx="66.2" cy="58.9" r="1.6"></circle>
                <circle id="logo--Oval" cx="62.1" cy="63" r="1.6"></circle>
                <circle id="logo--Oval" cx="70.3" cy="63" r="1.6"></circle>
                <circle id="logo--Oval" cx="62.1" cy="54.9" r="1.6"></circle>
                <circle id="logo--Oval" cx="70.3" cy="54.9" r="1.6"></circle>
                <circle id="logo--Oval" cx="90.6" cy="58.9" r="1.6"></circle>
                <circle id="logo--Oval" cx="82.5" cy="58.9" r="1.6"></circle>
                <circle id="logo--Oval" cx="78.4" cy="63" r="1.6"></circle>
                <circle id="logo--Oval" cx="86.5" cy="63" r="1.6"></circle>
                <circle id="logo--Oval" cx="78.4" cy="54.9" r="1.6"></circle>
                <circle id="logo--Oval" cx="86.5" cy="54.9" r="1.6"></circle>
                <circle id="logo--Oval" cx="106.8" cy="58.9" r="1.6"></circle>
                <circle id="logo--Oval" cx="98.7" cy="58.9" r="1.6"></circle>
                <circle id="logo--Oval" cx="94.6" cy="54.9" r="1.6"></circle>
                <circle id="logo--Oval" cx="102.8" cy="54.9" r="1.6"></circle>
                <circle id="logo--Oval" cx="110.9" cy="54.9" r="1.6"></circle>
                <circle id="logo--Oval" cx="147.5" cy="2.1" r="1.6"></circle>
                <path d="M147.1,19.9 L147.4,19.9 L147.7,19.9 C147.8,19.9 147.9,19.8 147.9,19.8 C148.1,18.9 148.3,18.1 148.5,17.2 C148.3,17 148,16.8 147.7,16.7 L147.4,16.7 L147.1,16.7 C146.4,16.9 145.8,17.5 145.8,18.3 C145.8,19.1 146.4,19.8 147.1,19.9 Z" id="logo--Shape"></path>
                <path d="M142.9,32 C143.4,31.1 143.9,30.1 144.4,29.2 C144.1,29 143.8,28.8 143.4,28.8 C142.5,28.8 141.8,29.5 141.8,30.4 C141.8,31.2 142.2,31.8 142.9,32 Z" id="logo--Shape"></path>
                <circle id="logo--Oval" cx="139.3" cy="34.6" r="1.6"></circle>
                <path d="M122.8,52.4 L123,52.4 C123.6,52 124.2,51.6 124.7,51.3 C124.7,51.2 124.8,51 124.8,50.8 C124.8,50 124.2,49.4 123.5,49.2 L123.2,49.2 L122.9,49.2 C122.2,49.4 121.6,50 121.6,50.8 C121.5,51.6 122,52.3 122.8,52.4 Z" id="logo--Shape"></path>
                <path d="M120.4,54 C120.1,53.6 119.6,53.3 119,53.3 C118.1,53.3 117.4,54 117.4,54.9 C117.4,55.2 117.5,55.4 117.6,55.6 C118.5,55.1 119.5,54.6 120.4,54 Z" id="logo--Shape"></path>
                <path d="M103.6,61.6 C103.4,61.5 103.1,61.4 102.8,61.4 C102.2,61.4 101.6,61.8 101.3,62.3 C102.1,62.1 102.8,61.9 103.6,61.6 Z" id="logo--Shape"></path>
                <path d="M93.6,64.2 C94.4,64 95.3,63.8 96.1,63.6 C96.2,63.4 96.2,63.2 96.2,62.9 C96.2,62 95.5,61.3 94.6,61.3 C93.7,61.3 93,62 93,62.9 C93,63.5 93.2,63.9 93.6,64.2 Z" id="logo--Shape"></path>
                <path d="M1.2,16.7 L0.9,16.7 C0.7,16.7 0.5,16.8 0.3,16.9 C0.5,17.9 0.7,18.9 1,19.8 L1.2,19.8 L1.5,19.8 C2.2,19.6 2.8,19 2.8,18.2 C2.8,17.4 2.2,16.8 1.5,16.6 C1.4,16.7 1.3,16.7 1.2,16.7 Z" id="logo--Shape"></path>
                <path d="M6,31.9 C6.5,31.6 6.9,31.1 6.9,30.5 C6.9,29.6 6.2,28.9 5.3,28.9 C5,28.9 4.8,29 4.5,29.1 C5,30 5.5,31 6,31.9 Z" id="logo--Shape"></path>
                <path d="M8.7,36.1 C8.9,36.2 9.1,36.2 9.3,36.2 C10.2,36.2 10.9,35.5 10.9,34.6 C10.9,33.7 10.2,33 9.3,33 C8.4,33 7.7,33.7 7.7,34.6 L7.7,34.6 C8,35.1 8.4,35.6 8.7,36.1 Z" id="logo--Shape"></path>
                <path d="M26,52.4 C26.7,52.2 27.2,51.6 27.2,50.8 C27.2,50 26.6,49.4 25.9,49.2 L25.6,49.2 L25.3,49.2 C24.6,49.4 24,50 24,50.8 L24,51 C24.7,51.5 25.3,51.9 26,52.4 Z" id="logo--Shape"></path>
                <path d="M31.2,55.5 C31.3,55.3 31.3,55.1 31.3,54.9 C31.3,54 30.6,53.3 29.7,53.3 C29.2,53.3 28.7,53.5 28.4,53.9 C29.3,54.4 30.2,55 31.2,55.5 Z" id="logo--Shape"></path>
                <path d="M42.2,60.5 C42.9,60.3 43.4,59.7 43.4,58.9 C43.4,58 42.7,57.3 41.8,57.3 C40.9,57.3 40.2,58 40.2,58.9 C40.2,59.2 40.3,59.5 40.5,59.8 C41.1,60.1 41.6,60.3 42.2,60.5 Z" id="logo--Shape"></path>
                <path d="M47.3,62.2 C47,61.7 46.5,61.4 45.9,61.4 C45.6,61.4 45.4,61.5 45.2,61.6 C45.9,61.8 46.6,62 47.3,62.2 Z" id="logo--Shape"></path>
                <path d="M74.5,66.1 L75.7,66.1 C75.4,65.7 74.9,65.4 74.4,65.4 C73.9,65.4 73.4,65.7 73.1,66.1 L74.5,66.1 Z" id="logo--Shape"></path>
                <path d="M67.3,65.9 C67,65.6 66.6,65.5 66.2,65.5 C65.9,65.5 65.6,65.6 65.3,65.8 C66,65.8 66.6,65.8 67.3,65.9 Z" id="logo--Shape"></path>
                <path d="M83.4,65.7 C83.1,65.5 82.8,65.4 82.5,65.4 C82.1,65.4 81.7,65.6 81.4,65.8 C82,65.8 82.7,65.8 83.4,65.7 Z" id="logo--Shape"></path>
                <path d="M55.1,64.2 C55.4,63.9 55.6,63.5 55.6,63 C55.6,62.1 54.9,61.4 54,61.4 C53.1,61.4 52.4,62.1 52.4,63 C52.4,63.2 52.4,63.4 52.5,63.6 C53.4,63.8 54.3,64 55.1,64.2 Z" id="logo--Shape"></path>
            </g>
        </g>
    </g>
</svg>
